<mxfile host="app.diagrams.net" modified="2022-07-21T19:34:22.441Z" agent="5.0 (Windows NT 10.0; Win64; x64) AppleWebKit/537.36 (KHTML, like Gecko) Chrome/103.0.5060.134 Safari/537.36" etag="qLNAGARto9i1BWj6xvuy" version="20.1.4" type="github">
  <diagram id="2cmeFbjExY237WY8n_J0" name="Pàgina-1">
    <mxGraphModel dx="1745" dy="488" grid="1" gridSize="10" guides="1" tooltips="1" connect="1" arrows="1" fold="1" page="1" pageScale="1" pageWidth="827" pageHeight="1169" math="0" shadow="0">
      <root>
        <mxCell id="0" />
        <mxCell id="1" parent="0" />
        <mxCell id="YCEQ_X1K06xCHxd9x4Mt-1" value="Accidente" style="swimlane;childLayout=stackLayout;horizontal=1;startSize=30;horizontalStack=0;rounded=1;fontSize=14;fontStyle=0;strokeWidth=2;resizeParent=0;resizeLast=1;shadow=0;dashed=0;align=center;" parent="1" vertex="1">
          <mxGeometry y="110" width="160" height="100" as="geometry" />
        </mxCell>
        <mxCell id="YCEQ_X1K06xCHxd9x4Mt-2" value="- &lt;u&gt;idAccidente&lt;/u&gt;&lt;br&gt;- latitud&lt;br&gt;- longitud&lt;br&gt;- nombre" style="align=left;strokeColor=none;fillColor=none;spacingLeft=4;fontSize=12;verticalAlign=top;resizable=0;rotatable=0;part=1;html=1;" parent="YCEQ_X1K06xCHxd9x4Mt-1" vertex="1">
          <mxGeometry y="30" width="160" height="70" as="geometry" />
        </mxCell>
        <mxCell id="YCEQ_X1K06xCHxd9x4Mt-4" value="Pais" style="swimlane;childLayout=stackLayout;horizontal=1;startSize=30;horizontalStack=0;rounded=1;fontSize=14;fontStyle=0;strokeWidth=2;resizeParent=0;resizeLast=1;shadow=0;dashed=0;align=center;" parent="1" vertex="1">
          <mxGeometry x="-430" y="110" width="160" height="100" as="geometry" />
        </mxCell>
        <mxCell id="YCEQ_X1K06xCHxd9x4Mt-5" value="- &lt;u&gt;idPais&lt;/u&gt;&lt;br&gt;&lt;div&gt;- nombre&lt;/div&gt;&lt;div&gt;- extension&lt;/div&gt;&lt;div&gt;- poblacion&lt;br&gt;&lt;/div&gt;" style="align=left;strokeColor=none;fillColor=none;spacingLeft=4;fontSize=12;verticalAlign=top;resizable=0;rotatable=0;part=1;html=1;" parent="YCEQ_X1K06xCHxd9x4Mt-4" vertex="1">
          <mxGeometry y="30" width="160" height="70" as="geometry" />
        </mxCell>
        <mxCell id="YCEQ_X1K06xCHxd9x4Mt-7" value="Localidad" style="swimlane;childLayout=stackLayout;horizontal=1;startSize=30;horizontalStack=0;rounded=1;fontSize=14;fontStyle=0;strokeWidth=2;resizeParent=0;resizeLast=1;shadow=0;dashed=0;align=center;" parent="1" vertex="1">
          <mxGeometry x="-430" y="310" width="160" height="70" as="geometry" />
        </mxCell>
        <mxCell id="YCEQ_X1K06xCHxd9x4Mt-8" value="- &lt;u&gt;idLocalidad&lt;/u&gt;&lt;br&gt;- nombre" style="align=left;strokeColor=none;fillColor=none;spacingLeft=4;fontSize=12;verticalAlign=top;resizable=0;rotatable=0;part=1;html=1;" parent="YCEQ_X1K06xCHxd9x4Mt-7" vertex="1">
          <mxGeometry y="30" width="160" height="40" as="geometry" />
        </mxCell>
        <mxCell id="YCEQ_X1K06xCHxd9x4Mt-15" value="Sucede" style="shape=rhombus;perimeter=rhombusPerimeter;whiteSpace=wrap;html=1;align=center;" parent="1" vertex="1">
          <mxGeometry x="-190" y="145" width="120" height="60" as="geometry" />
        </mxCell>
        <mxCell id="YCEQ_X1K06xCHxd9x4Mt-16" value="Pasa" style="shape=rhombus;perimeter=rhombusPerimeter;whiteSpace=wrap;html=1;align=center;" parent="1" vertex="1">
          <mxGeometry x="-210" y="330" width="120" height="60" as="geometry" />
        </mxCell>
        <mxCell id="YCEQ_X1K06xCHxd9x4Mt-17" value="" style="endArrow=none;html=1;rounded=0;" parent="1" source="YCEQ_X1K06xCHxd9x4Mt-5" target="YCEQ_X1K06xCHxd9x4Mt-15" edge="1">
          <mxGeometry relative="1" as="geometry">
            <mxPoint x="-210" y="260" as="sourcePoint" />
            <mxPoint x="-50" y="260" as="targetPoint" />
          </mxGeometry>
        </mxCell>
        <mxCell id="YCEQ_X1K06xCHxd9x4Mt-18" value="" style="endArrow=none;html=1;rounded=0;" parent="1" source="YCEQ_X1K06xCHxd9x4Mt-2" target="YCEQ_X1K06xCHxd9x4Mt-15" edge="1">
          <mxGeometry relative="1" as="geometry">
            <mxPoint x="-260" y="194.5454545454545" as="sourcePoint" />
            <mxPoint x="-172.79999999999995" y="188.60000000000002" as="targetPoint" />
          </mxGeometry>
        </mxCell>
        <mxCell id="YCEQ_X1K06xCHxd9x4Mt-19" value="" style="endArrow=none;html=1;rounded=0;" parent="1" source="YCEQ_X1K06xCHxd9x4Mt-16" target="YCEQ_X1K06xCHxd9x4Mt-8" edge="1">
          <mxGeometry relative="1" as="geometry">
            <mxPoint x="10" y="191.19047619047615" as="sourcePoint" />
            <mxPoint x="-65.21739130434776" y="187.60869565217388" as="targetPoint" />
          </mxGeometry>
        </mxCell>
        <mxCell id="YCEQ_X1K06xCHxd9x4Mt-20" value="" style="endArrow=none;html=1;rounded=0;dashed=1;" parent="1" source="YCEQ_X1K06xCHxd9x4Mt-7" target="YCEQ_X1K06xCHxd9x4Mt-5" edge="1">
          <mxGeometry relative="1" as="geometry">
            <mxPoint x="-340" y="320" as="sourcePoint" />
            <mxPoint x="-260" y="368.68421052631584" as="targetPoint" />
          </mxGeometry>
        </mxCell>
        <mxCell id="YCEQ_X1K06xCHxd9x4Mt-21" value="" style="endArrow=none;html=1;rounded=0;" parent="1" source="YCEQ_X1K06xCHxd9x4Mt-12" target="YCEQ_X1K06xCHxd9x4Mt-16" edge="1">
          <mxGeometry relative="1" as="geometry">
            <mxPoint x="-192.17391304347825" y="363.9130434782609" as="sourcePoint" />
            <mxPoint x="-260" y="369" as="targetPoint" />
          </mxGeometry>
        </mxCell>
        <mxCell id="YCEQ_X1K06xCHxd9x4Mt-24" value="" style="endArrow=none;html=1;rounded=0;" parent="1" source="YCEQ_X1K06xCHxd9x4Mt-22" target="YCEQ_X1K06xCHxd9x4Mt-2" edge="1">
          <mxGeometry relative="1" as="geometry">
            <mxPoint x="-50" y="370" as="sourcePoint" />
            <mxPoint x="-90.90909090909076" y="365.4545454545454" as="targetPoint" />
          </mxGeometry>
        </mxCell>
        <mxCell id="YCEQ_X1K06xCHxd9x4Mt-28" value="" style="group" parent="1" vertex="1" connectable="0">
          <mxGeometry x="-60" y="250" width="270" height="130" as="geometry" />
        </mxCell>
        <mxCell id="YCEQ_X1K06xCHxd9x4Mt-9" value="Lago" style="swimlane;childLayout=stackLayout;horizontal=1;startSize=30;horizontalStack=0;rounded=1;fontSize=14;fontStyle=0;strokeWidth=2;resizeParent=0;resizeLast=1;shadow=0;dashed=0;align=center;" parent="YCEQ_X1K06xCHxd9x4Mt-28" vertex="1">
          <mxGeometry x="100" y="70" width="80" height="60" as="geometry" />
        </mxCell>
        <mxCell id="YCEQ_X1K06xCHxd9x4Mt-10" value="- extension" style="align=left;strokeColor=none;fillColor=none;spacingLeft=4;fontSize=12;verticalAlign=top;resizable=0;rotatable=0;part=1;html=1;" parent="YCEQ_X1K06xCHxd9x4Mt-9" vertex="1">
          <mxGeometry y="30" width="80" height="30" as="geometry" />
        </mxCell>
        <mxCell id="YCEQ_X1K06xCHxd9x4Mt-11" value="Rio" style="swimlane;childLayout=stackLayout;horizontal=1;startSize=30;horizontalStack=0;rounded=1;fontSize=14;fontStyle=0;strokeWidth=2;resizeParent=0;resizeLast=1;shadow=0;dashed=0;align=center;" parent="YCEQ_X1K06xCHxd9x4Mt-28" vertex="1">
          <mxGeometry y="70" width="90" height="60" as="geometry" />
        </mxCell>
        <mxCell id="YCEQ_X1K06xCHxd9x4Mt-12" value="- longitudRio" style="align=left;strokeColor=none;fillColor=none;spacingLeft=4;fontSize=12;verticalAlign=top;resizable=0;rotatable=0;part=1;html=1;" parent="YCEQ_X1K06xCHxd9x4Mt-11" vertex="1">
          <mxGeometry y="30" width="90" height="30" as="geometry" />
        </mxCell>
        <mxCell id="YCEQ_X1K06xCHxd9x4Mt-13" value="Montaña" style="swimlane;childLayout=stackLayout;horizontal=1;startSize=30;horizontalStack=0;rounded=1;fontSize=14;fontStyle=0;strokeWidth=2;resizeParent=0;resizeLast=1;shadow=0;dashed=0;align=center;" parent="YCEQ_X1K06xCHxd9x4Mt-28" vertex="1">
          <mxGeometry x="190" y="70" width="80" height="60" as="geometry" />
        </mxCell>
        <mxCell id="YCEQ_X1K06xCHxd9x4Mt-14" value="- altura" style="align=left;strokeColor=none;fillColor=none;spacingLeft=4;fontSize=12;verticalAlign=top;resizable=0;rotatable=0;part=1;html=1;" parent="YCEQ_X1K06xCHxd9x4Mt-13" vertex="1">
          <mxGeometry y="30" width="80" height="30" as="geometry" />
        </mxCell>
        <mxCell id="YCEQ_X1K06xCHxd9x4Mt-22" value="" style="strokeWidth=2;html=1;shape=mxgraph.flowchart.merge_or_storage;whiteSpace=wrap;fontSize=12;" parent="YCEQ_X1K06xCHxd9x4Mt-28" vertex="1">
          <mxGeometry x="118.25" width="45" height="27" as="geometry" />
        </mxCell>
        <mxCell id="YCEQ_X1K06xCHxd9x4Mt-23" value="" style="shape=requiredInterface;html=1;verticalLabelPosition=bottom;sketch=0;fontSize=12;direction=south;" parent="YCEQ_X1K06xCHxd9x4Mt-28" vertex="1">
          <mxGeometry x="57" y="23" width="166" height="10" as="geometry" />
        </mxCell>
        <mxCell id="YCEQ_X1K06xCHxd9x4Mt-25" value="" style="endArrow=none;html=1;rounded=0;exitX=0.201;exitY=0.516;exitDx=0;exitDy=0;exitPerimeter=0;" parent="YCEQ_X1K06xCHxd9x4Mt-28" source="YCEQ_X1K06xCHxd9x4Mt-22" target="YCEQ_X1K06xCHxd9x4Mt-11" edge="1">
          <mxGeometry relative="1" as="geometry">
            <mxPoint x="150.6210191082805" y="10" as="sourcePoint" />
            <mxPoint x="150.33439490445858" y="-20" as="targetPoint" />
          </mxGeometry>
        </mxCell>
        <mxCell id="YCEQ_X1K06xCHxd9x4Mt-26" value="" style="endArrow=none;html=1;rounded=0;" parent="YCEQ_X1K06xCHxd9x4Mt-28" source="YCEQ_X1K06xCHxd9x4Mt-22" target="YCEQ_X1K06xCHxd9x4Mt-9" edge="1">
          <mxGeometry relative="1" as="geometry">
            <mxPoint x="137.29499999999985" y="23.93199999999996" as="sourcePoint" />
            <mxPoint x="80" y="80" as="targetPoint" />
          </mxGeometry>
        </mxCell>
        <mxCell id="YCEQ_X1K06xCHxd9x4Mt-27" value="" style="endArrow=none;html=1;rounded=0;exitX=0.794;exitY=0.432;exitDx=0;exitDy=0;exitPerimeter=0;" parent="YCEQ_X1K06xCHxd9x4Mt-28" source="YCEQ_X1K06xCHxd9x4Mt-22" target="YCEQ_X1K06xCHxd9x4Mt-13" edge="1">
          <mxGeometry relative="1" as="geometry">
            <mxPoint x="147.29499999999985" y="33.93199999999996" as="sourcePoint" />
            <mxPoint x="148.93319135510342" y="80" as="targetPoint" />
          </mxGeometry>
        </mxCell>
        <mxCell id="jwCj8jfdCD62-75SdIWw-3" value="0:1" style="text;html=1;align=center;verticalAlign=middle;resizable=0;points=[];autosize=1;strokeColor=none;fillColor=none;" vertex="1" parent="YCEQ_X1K06xCHxd9x4Mt-28">
          <mxGeometry x="190" y="40" width="40" height="30" as="geometry" />
        </mxCell>
        <mxCell id="jwCj8jfdCD62-75SdIWw-5" value="0:1" style="text;html=1;align=center;verticalAlign=middle;resizable=0;points=[];autosize=1;strokeColor=none;fillColor=none;" vertex="1" parent="YCEQ_X1K06xCHxd9x4Mt-28">
          <mxGeometry x="110" y="40" width="40" height="30" as="geometry" />
        </mxCell>
        <mxCell id="6E9oyV73zOLpp6oEfOBd-2" value="1:N" style="text;html=1;align=center;verticalAlign=middle;resizable=0;points=[];autosize=1;strokeColor=none;fillColor=none;" parent="1" vertex="1">
          <mxGeometry x="-260" y="155" width="40" height="30" as="geometry" />
        </mxCell>
        <mxCell id="6E9oyV73zOLpp6oEfOBd-3" value="1:N" style="text;html=1;align=center;verticalAlign=middle;resizable=0;points=[];autosize=1;strokeColor=none;fillColor=none;" parent="1" vertex="1">
          <mxGeometry x="-40" y="145" width="40" height="30" as="geometry" />
        </mxCell>
        <mxCell id="6E9oyV73zOLpp6oEfOBd-4" value="1:N" style="text;html=1;align=center;verticalAlign=middle;resizable=0;points=[];autosize=1;strokeColor=none;fillColor=none;" parent="1" vertex="1">
          <mxGeometry x="-260" y="325" width="40" height="30" as="geometry" />
        </mxCell>
        <mxCell id="6E9oyV73zOLpp6oEfOBd-7" value="0:N" style="text;html=1;align=center;verticalAlign=middle;resizable=0;points=[];autosize=1;strokeColor=none;fillColor=none;" parent="1" vertex="1">
          <mxGeometry x="-100" y="325" width="40" height="30" as="geometry" />
        </mxCell>
        <mxCell id="jwCj8jfdCD62-75SdIWw-1" value="" style="shape=image;verticalLabelPosition=bottom;labelBackgroundColor=default;verticalAlign=top;aspect=fixed;imageAspect=0;image=data:image/png,iVBORw0KGgoAAAANSUhEUgAAAd0AAAEACAYAAAD2nayfAAAgAElEQVR4nOy9X2hbWbbn/9WPeWipLhTV0sUePHhkP4w0/VAOxg8Ox35RQckNgbqRIaaQdZmBuVch7kpwd2legn0biXpoFFqkpl1t5T7MVEkHKoG4u4bAle5QhhAd4gdjrAvVLeXB0ZgR43RJyYTqkfpNvwfP2tnn6Bzp6I+VlGt9QFTKOmf/WXvrrL3X3md/Ha1WqwWGYRiGYc6c/+91F4BhGIZhfiiw02UYhmGYEcFOl2EYhmFGBDtdhmEYhhkR7HQZhmEYZkS0Od16vY6lpSU4HI62z9WrV9FsNm0lTOksLS2hXq/3VChVVZFIJEQamqbZvvfJkyeW+amq2rEO5XIZwWAQ5XIZzWYTV69eNbXDhQsXUC6XbZWnnzp0S+/JkydDSQsADg8PbbfpWTNsWw1CIpFAIpEYSlpyv+rn+7Nm2H2qE91+g8Om13Y8S1vY6d/D6nfD/i3RM5kZnJ5muul0Guvr62f6gymXy3jw4AGuXbsGt9uNXC4HRVFs3atpGq5fv275fTgcxvb2NpxOp+3yZLNZtFot3ScWi+HGjRu2BhO91qET9Xod4XAY33777cBpAac/pO3t7aGkxXw/GXaf6kY/v8FB2NjYwMbGhq1rR22Ls2SYzx0ACIVCqFarb8SA+PuOpdMNBoOo1WrC0ZRKJczMzGBvbw/Hx8ddE6ZGz+VycLvdtgt07949XLp0qad7Rs3S0hIAoFQqveaSMAzDnD1OpxORSASZTOaNiYx9X7E9052cnMT8/DyKxSJqtRqA05mlMfRKIyGz8HK5XMaFCxdMr6fvC4UC5ubmdGnQNRR6SSQSbSFvTdOwsLCAfD4Pj8djOiIzhraM5Xn48GE/NjS1g6qqpnUwhu/tht9pFJ7P57GwsCBCPcYwuJyeqqptNk4kElhaWkI6ncbq6irS6TQuXrxoGtrsZG/CaEM5BEVh0zt37rSVT07TGLb65ptvdGnKtvvwww9FenJd5fR6Cf/LdZXr+N133+m+71RPs5Cp2d8ePnxou4y91sfYB439z6zfp9Np0z7VKX9K76uvvtL1Y8pPvsaqT8pl6dR/7eTVDTlcS3mb9Uer35eMWX82a5tubWfVv63K32lpy8rWZuFlqz7SzTbE7OwsAODg4MCO6RkLbDvd4+Nj7O3tYWZmBh6PB+VyGWtra23X0VqskXK5jJWVFRSLRd3f19bWRCfa39/H1NQUJicnLcuxubmJQCCAVquFWq2GSqWCnZ0dKIqCQqEgZujdwir1eh03btxALBYTae3s7ODZs2ddbfHZZ58BAPx+P8rlMuLxOEqlkogKZLNZJJPJth9bs9nEzZs3EYlExLWKooj0OuF2u6GqKoLBIAqFAjY2NlCv13H58mUsLi6K9CKRCMLhsHiIxONx0SaapuH+/fu4ffs2otEostksotEoHj9+DJ/P15O9gdMfsd/vx9bWlvhe0zTdA+vZs2c4ODhAo9FAo9GA1+uFx+MRaZZKJdy/f1/3cNjZ2cHXX3+NVquFQqGg6yMvXrwQ6eVyObhcLly9ehUAhA22trawsrJi2/GqqgpN00RkZ3FxEclkUnxvp57dkO3QaYmCnFAv9aH1Nip/rVZDJpOBqqpwu924ffs29vb2sLOzg2aziVQqheXlZUSj0bY+ZTf/3/72t1BVVbQR9fde+jj134mJCd211H+75dUP6XQab731FlqtluiPn332menvy4xnz55hZ2dH2FpuR7JdtVrVtbPRdp36t7Fd5bQajQbm5+eRSqXQbDbFb1xRFJ39bt68ib/85S9taa2trYnnVKlUQjKZ1DleK9sQTqcTExMT2N3d7cv2zCmWTpdmjDTq8fv9KBaLmJ+fx+TkJHw+Hw4PD0Vj12o1BINBnJyciJmwGdFoVHSiVquFw8ND8cA/OjrCxMREx/WeaDQqRlxutxuKouDo6KjniudyOXi9XoRCIZGW2Q9tdXXVdDZPDzSfz4d8Pq9zWnNzcxgbG2tLq9FooFKp6P7Wy5qTkVKppKsDcLr24vV6kcvlAADXrl0DAPzqV7/C2toaYrGYpYM1o5O9d3d3EY/HxQCHbKhpmu6hGYlE4HQ64XQ6sbi4qEvT4/FgfHxcl+fGxoZYXlAUBcvLy7h37574fnFxUfSR4+NjvHz5UtTT6h4r6vU6MpmMLs9QKIRoNCqusVvPToyNjWF9fV2U29hORK/1aTabePToka78VL5MJoN6vQ6fz4dYLIZMJoP19XVUKhVd+v3kH4lERH5+vx/j4+Oo1Wo99XFanpHzon/LSzdWefVDMBgUy0PUH6vVak8hU2NfoXY8Pj7G06dP29p5fn4e+/v7pvd3alvj+jeVlzCz38bGBra3t/GjH/1I/I36iPzbpz7x6NEjUXc7tpmenu7ZXoyenjZSxePxtk0QFMbweDzI5/OW91J4Op1Ow+Vy9bwbmujmlO1i5uA9Hk+bszTbSGW2Ti2Hefx+v+mM2e12IxKJCEfez85umUqlorOnw+GAy+VCOp3W5bmxsYFkMon5+Xmdg7aDlb2bzSaq1Sqmp6d1f/f7/XjnnXfEQ3FsbAwej8d2fu+8807b9fRDp9G71+sV39VqNXz55Ze6AaLD4cDm5qat/GjGIudJI/pe6tmNH//4x6Z5GAeMvdaHnNzCwoLu+oWFBd115BzS6bTuoW9mDzv5y20g00sfr1Qq8Hq9cLlcuvsVRdE5bqu8+sGYX68Y+7PcjrVaDQ6Ho+37xcVF0c6d+rfVs1AOC6+uroq/m9nPDOojRjvOzc3h5cuXaDQaAOzZxuv1olKpiHuY3rG9karVaulGq7QudPPmTfzud78TM10rnE4ntre30Wg0xCyCHMb3eUcc2cHj8YiQWqlUMp3pAqejV4oMAKeOvl/ne3R01BY5oE84HBbX0QNsFD+WWq2G58+fn2keMpVKxbSvGvvrsDmrevZan1qthpOTExQKhY6DQ3kGapyJDpK/GYP0cRrknCf6icQBr/ZkyGHhbDY7tHLVajW8ePFiaOkx9uj7cIx79+6hWCyKUB/9+LtBzlfuQK9jjcBsdFmr1Wyt6crs7+9jfn4ejUZDODo76dDubnow9bMTenp6uqsjLZfLSCaTSKfTbWs0g9BppmYc7ffCixcv2maPFJWQQ2aE1+vtuqTRCZrRyffLD/5+62m8/vnz56Z5GGfQvdaHwvOdHCnwah/C73//+45rooPaU6ZbHzebNVnNyt4Unj17ZtmOHo9HN9gwfg907t9yRIlCwtlstm0JjrA763S5XOJaGbsz5UHvYfT07XSpE1EYidZ8rTDb4UuhkkAgIP47yHqBWae3YmlpSbcpiHbU9oPc8a02mFEeS0tLus0L9CDy+/1d8zH+eGj9RXakNPPWNE23aebv//7vsb6+rtu0NGioKBAIYHNzU7e7OJFIQFGUgV75kjfj0eavK1eumF47Ozur21xC5TDa2QoKh8p57uzs6EL03epJYVva1Vkul3H//n1dPs+ePdOVcWdnB5VKRbRhv/Wh8hsdaSKR0O3spw10H3zwAZaXl0X6xj41qD176eP0/3L/lTcpjhor52TE2FeoHScnJzE1NdXWznt7e+KNDOP93fq37GRVVdWF+clG8r4ATdOwtLSki8JQiFvuIzQYl/dH2MHOvhumM307XeNmk2w2i2w2i2KxqNs0QCiKIt71lclms2KDit/vx8uXL229B2wGdXq/39/1AUG7FTOZjJixhEIhy7CwFbR7kGZMKysr2Nrawvj4eJsdaCdpMpkUA4+1tTXcvn0bbre768lE9ONZXV3F1atX4XK5xM5becPb1tYWFEXBrVu3dJtmaPME7ZakH63VK1bdoDZdW1sTNlQUZeCwbigUwnvvvSfsc/fuXcvNX06nE6lUCgDE2jaF+iny0O2Un3A4jEgkItqQNp3YraeiKMhms2JdNZVKtW1UGhsbw+zsrCijvLu41/qYlT8Wi8Hv94t+UK1WkUqlcHx83LaB7tq1a6hUKrh161ZbnwLQc/4y3fq48drf/e53qFarppsU7TDMk8OMtjAb/I+NjSEUCom+IrcjRfEmJiaE7ZLJZFv/tdO/nU4nPvnkE91v+9GjR/jnf/5ncVaC8RlGr7Kpqoof//jHuvTC4TC2trZEH/H7/YjFYrbalKA3IGiSxPSH400TsU8kEpienu6pM5wnvvrqK/j9/p52GDOdqdfr2NnZwd/93d+97qIwQ2aUbVsul3H9+nV8+umnP8jfp6ZpyGQySKVSPNMdgDdO8ODKlSt48ODBQLt6rTCGt9+0T7PZxL/8y7/0vR7KmFMqlXgN6pzCbTsams0mMpmMeP2P6Z83zun6fD5cunRpaBt+ZIy7Md+0T6PRwPj4+Bt9BOb3kVqtpltTY84P3LajYWdnBxMTE0M7y/mHzBsXXmYYhmGY88obN9NlGIZhmPMKO12GYRiGGRHsdBmGYRhmRLDTZRiGYZgRwU6XYRiGYUZEm9M1E59/XZCAsyxi3030mQ4J70Xo2gidAmM86UbTNHFSTa8n4dTrdTx58sT0u24nURkFqc0E0keFsSzd7DBoWc3EuDvRa7s8efLEsp/30y5W72Db7Y+91tdOelb9rh8ODw/fGFm3YduKoFOdGOYs4JmuTer1On7zm98IrcxedHBJbPrbb781/d5Mk/f7wiB6wGdBL+XRNA3Xr1+3/L6fdjFTfSLBcDvOgUQChvE+ZLd+1yuqqmJ7e3soab3JXLt2DQ8ePLAcbDHMIHyvnO7GxgZardZreUE7l8vhJz/5yffSMTKvF5/Ph+Xl5deipsX0jtvtxqVLl0yF5RlmUAZyusZwmllYj0LC8oHmBCni2A3DmYWX5TJcvXoV//f//l/dPc1mE1evXtXlYQx3yoeKLy0ttakU1et1ZDIZ3UHfchiTQqh37tzRpVOv18VsI5/PY2FhwdRGxjAmhc0orS+++MLSJlYYbWsWKrdqO7N2sQrZGsO5cnssLS3hT3/6U8d8jW0+aN3ttoumaVhYWEA+n7cUfDiLdqF0rexrDJka87S77NOp38m/yQsXLoj6UdvJtkgkElhaWkI6ncbq6irS6TQuXrxoOgvsZG/C+HuUvyd7m90vl9nYF7/55hudPY3lT6VSwobGpSqjDYilpSX84Q9/4NkuM3T6drqJREJI8xGbm5s6h5ZIJHRSVACwsLAATdNQr9dx48aNNjnATlqfRlRV1ZUhnU7rlI8A4NatWzqZNrqOJP3o4Uvk83n8zd/8je56O/J76XQab731ljjOkbRrSQkkGAyiUCh0DX02m03cvHkTiqKItMrlMvL5fMf7ZDRNE2pDJHWoaZp4WFGdSficvldVVbQL3dtqtVAoFHTSdp3yTSaTQnB7Y2MDP//5z8X35XIZ8XhcfE+aytTmw6i7Eat2URQFhUJBCLZ3i54MUjZN07C5uYlAINCTfSnPSCQirlUUxdYRqWb9jhwe8OpI1K2tLaysrKBcLiMcDiMejwvpOVkSMBqNIpvNIhqN4vHjx5YRHyt7A6cDgcuXL2NiYkJXn3A4LBzvs2fPcHBwgEajIe73eDwIBAIiVC/LUwKnRxR+/fXXwpakokV8/vnnuH37NlqtFmZnZzvagHC5XHj77bdNFdMYZhD6crqyXqj84A4Gg0JXlK6ZmZkRD9lCoQDgVLSe1q7kc4ej0SiKxaItPVwSeQZO5QHlMshQSFp+yAOvdCop5BePx3XlkLEj3BwMBoU2KkmE9aMNfHBwoJPjczqdWF9fb5NE7MTu7i7i8bhwJG63GxsbG2KwY/Z9LpdDOBw2XVP0+/1tdjVCB6LLEnKKoiAej4trzNZI5+bmhJziMOpuZNTtkk6nhawbfWiAQ/q7du1Lgu4yg6yhHx8f4+XLlzrZQUVRsLy8LEKp9N2vfvWrNklAO3SyNw1e5fzp37LAPR2qT/dHo1HMzs4COJWhHB8f1+W5sbEhzis31gcA5ufnMTk5adsGVPaJiQmdni3DDIO+nG6tVkOxWGx7cEciEQCnD326Znl5WfcQphkQQaNvl8vVNiPtBD2Q5B+5XAYjFDqTZ8bNZhPVahUzMzNCRNrpdFqm0YluTtkuZg7e7EFjBdVpenpa93e/34933nkH/+t//S/T783SoTCgx+PpOqOj9vB6vbq/m+Ujh0z9fj+ePXsGYPC6mzHqdjHbSGW2D8GOfak/r66u9hRatqJWq+HLL78UWrD0kaNRNEBLJpOYn59HKBTqKY9O9jazodvthqIoYnAxNjbWk8rWO++803b99PS0bmAli67bsYFVOgwzDF7bRip68F6+fBmffPKJ6QxzGNDajdfr1c10f2jUajU8f/6863XULi6XS4QBzSII/UBrmSSKTuFCmun+EOjVvuFwWFwDnDr6fp0vDVJrtVrboEAeCJMDrFQqaDQafdTSPjRIHBV2bcAwZ0VfTtfj8WBmZka3DkWbjQAgEAiIa+7fvy/WSmgTzdWrV/Hf//t/Rz6fFyE3s1BaJ1wuF7xeL/L5PHK5XFsZgFdh8GAwKNZj5XARhZCKxaIILVGY9HXh9XrbHna1Wg0nJye27rcKi9VqNTgcDvybf/NvOobNKMxXq9XEQ8hO/tQexjaU89nf38f8/DwajQbC4bBIm2a6g9b9LBlW2fq1L4WlyfnK4Vi7eL1enJycdFy+KZfLSCaTSKfTuvXYYWBmQ6sIiV1evHjRVp+joyPd7NZYhm42sJMOw/SLpdOlXZ3GnaaJREK8AgGcboySQ2S0/kLXFItF+P1+sbYFAIuLi/h3/+7fATjdfGU3hClD6z0ARPjNmAaF/+S6GMNItCOZymEW5p6bm8PLly/7HvVbOSQzZmdndQ+7ZrOJVCrVtuGsE4FAoG1AlEgkxAAnEAjoBkOAftev/FCy2vBmhMLy8kY42kAkIz90y+Uy1tbWhlr3XvB4PLpZZCeGWTa79qVZsby7286mPsLY72ZnZzE/P49UKiVCpnIeVKfl5WX8/d//PdbX13WblsycZi9QmWVHTv+2Ux8raOMXALH5i5aLjHSzAWG1TMMwg9J3eHljY6MtVBuPx7G9vS1GhhsbG7qNNMDppqdwONy2ySYej+s2WtkhHA7ryhCNRnUOk9anCHr9IxgMik1FtItVvub3v/+9Lp/JyUm8/fbbfc0ugFcDhNXV1a6nMzmdTqRSKVSrVTEI8Pl8beFHsw079OqDoigolUpYW1sTgxFFUYQtFEXB1taWGAw5HA4Ap+2lKApisZj4zuPx4Be/+AWi0WjXdjGmm0gk8Otf/1p8T+1OA6CVlRVsbW1hfHwc+/v7ture64lTnZicnMTU1BT8fn/XE4jstks3erGv2+3G7du3kUwmRTutra3h9u3bcLvdYl3YquzGfgcAqVQKAETfoVB/OBzGrVu3dJvFfD4fYrGY2A1MjtHqFatuuN1u/O53vxM2pFd4VFUVG6H6IRQK4b333hP2uXv3ruXmL2pHwNwGxPHxMZ4+fYq5ubm+y8UwZrCIvU1UVcXR0RGv+7xm6vU6dnZ28Hd/93evuyhvBOVyGaVSCR988MHrLsq5gn/vzFnxvTqR6nVyli/LW53Xyx/9BzgNrw5jN/J5aBfgdJ28l92+THfq9ToePHhgGaJmmEFgp2sTt9uNn/3sZ7q1oGFh3EXJH/MPcLrpaFQhv9ddXzv2aDQaA62HMu189tlnuHTpEh/5ypwJHF5mGIZhmBHBM12GYRiGGRHsdBmGYRhmRLDTZRiGYZgRwU6XYRiGYUbEuXO6Rj1SM+QDFsz0XenTyyEMwzy0wQ6yaMAo87WLUYu2V4xazfKn20EWMqNuF4ZhmE78q9ddgGFDZ9T2QjAYbDsVh0TAVVXVnVRjxahfos/lcvB6vWg0Gm/k2bAk4zcI0WgUqVRKV79yuYyVlRV4vd6uGrjA6NuFYRimE+dupjssSFbt0aNHb6S01w/1MHY609vuUaEMwzBvEufO6ZqFl0nez+E4VTj67rvvek5X1j+ljyyxJocxjdfSmchW5f3www9x584d0zSNaVDam5ub2Nzc1KVtdr1sg1QqJULSZB9jeF0O3VKdjPaTByHG+8kGxvAyyfr1G763olu6/bYLwzDMWXDunK4RVVWhaZrQz1xcXEQymex6H0mcLS4uwul04tatW0L/VFamMZM+M14bi8U6nmT14sULHBwcoNFoIJfLweVyiQPqKY2trS2srKzg+PgY29vbiMfjiMfjODw8xOTkpOX1slP5/PPPcfv2bbRap6LqqqoikUgI29RqNWQyGZ3j3dzcRCAQEN9XKhXs7OwAOHW4CwsLKBQK4ns6wF6GlHS2trZE+QqFgk4JyS6kXBQIBHpOt9d2YRiGGTbn2umSvu7GxoZYrw2FQohGo7rrzGQM/X4/YrGYWM/d2NjQrQ+63W7TNUUzUe5wOKxTXzKDnDtwqnDy8uVLofYCnKrTLC8vC91fGbvXz8/PY3JyUpTz0aNHOtuQKlMmkxGzbZJqlOtMGrm7u7uIx+PCDrSeblwDp7/L9vL7/V0VesyUlMjJk0yh3XT7bReGYZhhcq6dLs3g5APhSeRdJhgMimvlj9kGKnlXrVErltKPRCJCn9duCFMW8a7Vavjyyy/bBgJm+fVyvbwGTOLhpIcsOzWre2T60RuVw7t29JOj0SgajUZbuxgHO3bS7bddGIZhhsm5drrDhNY1M5mMcNBGrWBCURS0Wi00Gg3Mz8/D7/f39JCvVCqWAwGz3bi9Xg+cOuqTkxMRGpY/uVxuIH1TI7TO7nK5RHi3Vqv1rEU7aLqDtgvDMMygnGunSzM/Wn8FzMOM3ajX69A0DYVCQTgkO+k4nU5sb2+Lh/z+/r6t/LxeL05OTnTlHub1wKltxsfHUalUbN8jQxEDCjV3olQqATh19DQIIKc/CP2m22+7MAzDDMq5drr02k8ikRBrlDs7O0in032lJzuoW7dumaZDoU55B+3x8TGePn1qW5JudnYW8/Pzuk0+NKszOxii1+uBV7ZJJpNtu5yNO5StCAQCuH//ftv9ZruS5UEBbYAqFotd8+iG3XSH0S4MwzCDcq6dLnC6WSYSiYhZ76NHjxCLxXpKw+124/bt20gmkzoB8Ww2C03ThEMHTmdRn3zyie5VGr/fj83NTdv6nE6nE6lUCgDERiKPx4NIJGK6ztzr9UQ4HEYsFoPf7xdlrVarbQdSWKEoCra2tnT3A+0HUiiKosvH4/HgF7/4BaLR6EDv2/aS7jDahWEYZlBYT5dhGIZhRsS5n+kyDMMwzJsCO12GYRiGGRHsdBmGYRhmRLDTZRiGYZgRwU6XYRiGYUYEO12GYRiGGRHsdBmGYRhmRHR0unSqkVFndVhQ+rKGrBE6SehNOSOXykOHYhi1e7txeHhoedqTqqodT4MyatTKf79w4UJHO/aD1elSdsvbK81mE4eHh0NJy4phlrlb+/fTP2R6LatsP7O8O/W9syiPEav+2y9n2T8HbbteMZa1Xq/jyZMnfafXT/mfPHkytOfHKH7LvTDsZxVw2p8//PDDnm3W0emWSiWh2PLo0aNzpzuaSCR6/lHt7OxgYmLCUlquE6qqYnt72/L7fqXm9vf3MTY2hpOTE+RyuZ7u7YRRzvAsaTabWF9fxzfffDOS/M4bRvsZ+2a3vse8XuTffr1eRzgcxrfffjuy/DVNw/Xr14eS1g/lt+zz+XDp0iVTTfVOWDrdZrOJTCaDYDCIaDSKdDqNg4ODgQsqQw+GYavadINmq1ZSeVbU63U8ePAAV65cOaOS9Q7p4v7t3/4tlpeXz+XgiGEY5k1kaWkJf/jDH3qK3lg63ePjY+zt7UFRFKyvr2NmZsb0nFwKbdJ5tsYpvKx1atQxNQsvG6/PZDJteRqvke+X09Q0TVc2TdPEKIzEChYWFkSZO6ULALlcDm+//bYQgjeGcCjcRTKAsj1UVcXq6irS6TQuXrxo2kjGEIjRtg8fPmy75+DgAHt7e5ibm0MgEMDe3h6Oj49118jLBMZ6dWofY/hO1hJeWlrCn/70p57b5auvvtKVRVVVXZusrq7qbCCfldzPMke3MhttLNfXLBxq9rdvvvmmrZ9ZMUh9jPd2sl+1WhV906zvmYVme23vbtjpv/JvxezZINvS7G/fffedrs91Cjd3+313o1PbdfrtE0Z7plIp3fOB2i0cDiOfz2NhYUGItXSzhfE3/sUXX/RUr4WFBeTzeXg8HpGm1W+D8jJ7Vv3X//pfLX/LxrKbPQvs2pvs9Z//83/Wlc9oB+Nv8R/+4R9M24dCxalUSvddtz7jdrtx6dIl3Lt3z7a9LZ3u/v4+isUiAoEAJicnMT8/36YoUy6XsbKyolN1SafTWF9fFwWWHRwAFItFrKysmDods+tplt3pmnw+j3A4rDMGdVq5bIlEAs+fPzetb7d0aUa5uLjYMfy7ubmJQCAgtF0rlQp2dnYQDoeRzWYRjUbx+PHjrofsk2JOLBYTae3s7ODZs2e663Z3dzE/P4/JyUmhNiRL1VGoirRkSQT+5s2beP78OdbX1wFAiMXHYjHcuHGj7WGkaRqSySRKpZLQ6f35z3+uy+fy5ctYXFwU+ZDggpzWb3/7W6iqilarhUKhgGQyiePjY6RSKUSjUWSzWRFmU1UViURC6ATXajVkMhnbjqpbmTVNg9/vx9bWlkhf07SOD24zdnZ28PXXX4s6ra2tWQ6q+q1PuVxGPB4XdWm1Wshms5b2+9GPfiTu7bXvkW062a4b3fovPcyq1aqu71k9G6xIJpOIRCK69jOzp93+aYWqqlhbWxP2KJVKSCaTurysfvuAfXv++Mc/hqqqCAaDKBQKtpZ3ms0mbt68qdOLLpfLYmmwG4qioFAoCE1uRVGgaRpWVlZw9+5dkWa1WkUikRACMHt7e9jZ2UGz2UQqlcLy8jL+43/8j6a/ZTPMngXU9nbsnU6nMTMzI76/f/8+wuGwSDObzeoU5uTrG40GgFO1OMr+73QAACAASURBVOKPf/wj/vznP6PVagnpTzt9xuv1tgnfdMLU6dbrdRFa9vv9cDqdiEQiKBaLugf6vXv3UCwWEY/HRUWi0aiYbR0cHCCdTusE1rPZbFs6BM2uZ2ZmhLELhYLuGkozGo2KH2s2m0U+n29bz8xms6JBZmZmcHJygj//+c+iUwBAoVDA9vY2/vjHP3ZMt9FooFKpwOv1djRoNBrF7OwsgNNRkKIotjRnjeRyOXi9XoRCIZGW8QdIOr+RSAROpxNOpxOLi4vIZDKiA5Dm7LVr18R9Gxsb2N7exrfffounT59ifX1d/DDC4XBbuJ+WGmKxmHhgK4qCeDwurimVSrryAkAoFILX69W1SyQSEWn7/X6Mj4+b6gDTIGdjY0NcTzaQ62eFnTLv7u4iHo+LdU9Kv5cfEABdGRVFwfLyctvId9D6+Hw+5PN5ncOcm5vD2NiY7XLaxY7tutGt/5Ksotz3QqFQz/rGZu1nZk+7/dMMajvZHj6fD7FYTLecY/XbH4Y9O3FwcIBKpSJ+406nU0Qn+2V3d1dXXkqzUCigXC6L+mcyGayvr+vyt4vVs8CuvYPBIJaWlgBATAzlNI3P6mg0KtrfWB8iEAiIf9vtMx6PRwy07GDqdGkDFYUbHA4HFhYWALzaUEUi7jMzM2KNk8TBDw8P4fP5hP6sbIhwOIxWq2UqOVer1VAsFrG8vCyMPTs7Kxwk8ErTNp1OCxm71dVVANA5t5mZGaGTSg3SCbvpdmNiYqLnjVBmHB0dtaXl8Xh0D1lyqH6/X/xtbm4OJycn4jsaKLhcrrY8arWakMTrhNWAY3p6Wvy7UqnobOdwOOByudo0h7sNWox5Liws6EJM1A/t3m9VZuq/ch2AU1u+8847tn9A77zzTpv9pqenUa1W8Ze//GVo9SHk8Jnf72+LfAwDO+3djW7916zv0aCxl9+bsUxWD0C7/dMMK3vMzc3h5cuXYtZk9dsfhj07YfYb93g8GB8f7ys9+m2srq7q+qqxv5EDSqfTusGkXayeBXbtbfVcs8KsPzocDtFXxsbGdP3Rbp8xptMNU6fbSeP0LDZUnQXj4+Ndncn3GRo9ywMj+mEUi8WBdGr74ejoSBclkD+dNH2tqNVqODk5QaFQaEvvLDfe1Wo1yyWIQdMdpD60ZkY6yRTBOYuZ7uukn6iQ3XSH2T+B0zZ98eLFkEv6+iGnR5FC+UMTKvk64NWk5SwZtb3Pos8AJk6XQpZySJg+FOrd3d2F0+nExMQEisWiCKXJi86apomRihzuoc0EZutmHo8HMzMzurVjCicTlKaZMey+3kJllxlGusOEZkvyJoRarSZGmhSKN3uIZ7NZYUOv14tKpSJGhzJ2wyIul0ukIyM/IKenpy3z6Qcaqff7Y+5WZuoDxod8t9m/3AYA8OLFizb70SxPXlcdtD77+/uYn59Ho9EQP3hjWQaBZjeAvfbuRrf+a9b3rKIP8v0nJycdy2TVfoP0Tyt7dIoi2bl/kAGGbAuz37iZrexC5e1WPnpV5ve//71uPXZQBrW3FWb9sdVqWf7W7faZbukYaXO6uVwO+XxevIcq4/f7EQwGxQP9ypUrmJmZwebmpm7qTWvBFBqWZ2MUspVj5wSFgYvFIvx+v2n4jdI0Tvu77Rq1gnYv//t//+87pktrNIOM6Do5QCNLS0u6jRj1el03UKGHMK0hyVBYfX9/X4Se5TUITdOwtLSEv/qrv8LU1JRu/dFsdy6t6cs/LE3TdK9c0dqK/M4azc7stIvRCbrd7rY8gdPNcHZecrdT5kAggM3NTd0O0EQiIfo+9Vl5UGm2m17erKFpGu7fv9/2Wtmg9QGg6zvlchlra2u6+poNIghj35uenrYc3NqxXTe69d/JyUlMTU0hlUqJuu/s7Iid+PTgzWQy4nvaQyJj1n7ycpZcHqC//klhb9ke5XIZyWSy68ZKur8XexqdTjdbzM7Owuv1irrRxiajrTohD4KovLJtgdMJE+3epX5++/ZtfPDBB1heXhZt2a0vdmNQe1uRTqdFfyQbLSwsWG4stNtn7C7TETqnSwvYgLlTJMdDG6F8Ph/u3r2rW7APBoNQVRVutxtOp1O3aYkoFAqmB0qYXU+bmzpd0ylNK+T6VSoVtFqtrukGAoGB3oMlByhvy7fC7XZDVVVkMhnRoKFQCGNjY/g//+f/IJPJWHZAn88n3tl1uVy6dCjKoKoqJiYmkEqlUK1WxXcrKyv49NNP2zqioijY2toSg6FEIoFf//rXbeWVt/nTzmC77UJOkH7Y4XAYsVhM5OlwOFCtVpFKpeB0OsXgwWoTUrcyK4qCUqmEtbU1YWNFUURkg3Zp3r9/Hw6HAxcvXsRPf/rTtpBuKBTCe++9B4fDgbW1Ndy9e9f0h9ytPp2gHeg0EFhZWcHW1hbGx8fFxiPZfsYQubHvhcNhLC8vi7LQpjK7tqOoltXO6079F3i1/2NiYkIMcpPJpLCd0+nEJ598gkqlIr5/9913EQwGdfnQZh7Kg3aXWpWn3/4ZDod19vD7/YjFYrbDjIqi6NreaE8Zcjr0yg2AjragZyL9jl0uF3w+n85W3X4rNAjy+/1QVVXsaJb3INBO+1qthrW1Nd1Gp2vXrqFSqYjdwMbfcq8Mam8zotEoisWisNHExETHKKbdPrO7u2s6SbXC0Wq1Wn3X4gdGvV7Hz372M/zyl7+09doFc/b84z/+I0Kh0EgPV2FOKZfLKJVK+OCDD153Ub6XqKqKo6OjkS1f8W9l+PTjE1jwoAf6eRG6F4wHH/DH+gOcdviTk5O+13iYwdjf3z/XmxWHBUUFjAevJJNJ04jiWcC/lbMhl8vhJz/5SU+TMHa6PRIKhVCtVs/kIHTjhij+WH+A07WUd999dyivaDG902g0dK+rMeZQqHyQpZdB4d/K8CmXy3jw4EHP7ydzeJlhGIZhRgTPdBmGYRhmRLDTZRiGYZgRwU6XYRiGYUYEO12GYRiGGRHsdBmGYRhmRJievSyLABs/RiFh49/somlam4Cz3ZOems0mDg8PTb8zE3w2YibgTX/vtz5WDFKefnny5Elfp8DYxU6deqFb+/faP2SGXdZuGI/R7NRX7SL3DzMhe/rINuq13qT1yzDM2dLzTHd1dXXgB1i9XsdvfvMboaUZDoc7ih3LkNj8N998Y/q92+1GLpfr+f03Ok90ZWXFlr6pXfotT79omobr16+PJC+mHVn3tltf7RczMRI6U3l9fR3NZrPnfneW758zDPMKS6dr9sPOZrMAXkn/ddLG7UQ/p3icNaQ/+9FHH+n0aBnm+wCJcj99+hTHx8d93R+JRHSH6jMMM3x6mumS/B1JJFmFlylMaxaSrtfryGQyuuPP5PAhhee++uorXLhwQaShaZqYOaTTaXEYuPEBYRZWk8tz9epVfPfdd7p7SD1GURTMzs5ifn7eVI+W6mtWL2PYj0J1/ZTHmJYxpH/16lXcuXNHfC8rfywsLAhVJ8pTllyUr7eLccnhiy++aLumU5nNwudmf/uHf/gH01CpkUHr0699CVIaoe/v3LkjQsrUf4vFomlftWOLbv3DClk6z6zfdao3AKFY9X3Qy2aY7ys9OV1yRBMTE6ahYHoYGiWrVldXxUOFZpCdjo979uwZ/umf/gmPHz8WM+xEIoFGoyGUgLLZrK2QNKlE0KydJKNkSJs2EAiIEb+maboHraqqSCaTKJVKQkA8mUxC0zTh7EjbtlarQdM007XhbuWhtTX6vlarCXUPIp1O46233hJhRZL1ImUQilIoioJ6vY7Lly9jcXFRRCxIicWOo2o2m7h58yYURRH5lctl5PN5XZnX1tbabNPL2ng6ncbMzIwuVEqKJTKD1sdOWa3sS/nfuHEDsVhMtM/Ozk6bru2PfvSjnvsqla9bfzWDBo7Ly8umESQ79SZJNrMBJ8Mww8HS6coauPTZ3NzEzMxMm1YoQZqcMzMzuh+3LExvV4g4EomIh9Tc3JwtsXUjNKve2NgQyhqhUKhNvs+oTWvUoCXJQ1nKyufz4fDwEIqiCFk0Wj+j9TRj2L1beSgf+Xu3242NjQ3dOnMwGBRajyQDZhRoJkqlErxeL0KhkPhbKBSC1+vVaexacXBwgEqlIs4XpTAmyTla2SYWi/UkgxiNRkUZKY9CodAmjD1IfeyWtZN9c7mcLn9qn2Fgt7+a/TY7SZX10kZm4vMMwwyPnma60WgUjx8/tlyLJdFl4497eXlZaPDaYWxsbCjqJTRbkNOi0TxBDyRZm5Z0g+mB1Gg0xGDBSLPZRLVaxfT09MDloXxkDUuHw4GFhQVdOnYGLUSlUkE6nRY6nPSAJsFyO/cb8/N4PBgfH9eV2Wibubk5vHz5Usxau2GMnpBTMQ60BqmP3bJ2su/R0ZFpWY0au/1gp78C+v0WjUYD0WgU0WgUH3/8sWm6vbSRUeyeYZjhYmsjFYlb7+3t9bVJ402GZuerq6tts/pR17dWq+Hk5ESEqeVPLpfrSwfz6OgI0WgUjUajLc1BBKG7UavV8OLFi6Gnexb1OauyjgJZ7J12Ltvl+1xvhvm+Ymumu7GxgXg8jmKxiBs3bliundFIOplMirBguVzG/fv3MTMzg7m5uSEV2x5msyWamRK7u7umD/FarYbx8XHcu3cPLpdLzACM0Ezk6Oho4PLQDNIsn36Znp4eaOZiNvOhwQEAS9t0WkYwtgGAtpCm2axv0Pr0U1YjZuFXeQNTrxjbv1t/NYNC3Ol0Gjs7O23f91LvXmzBMEzv2A4vX7t2DcFgEPl8XmwqMTI7O4toNIpisQi/3y90I4vFotjg0WvY0UgvTs7tdiMSiSCRSIiBws7OjghF0o5fef1YvldRFGiahkajgcXFRd26Km0aU1UVgUBArFkTZrtUu5WHvpcHLZSW3cMhPB6Pbv2b1iblNqPdt3beyZydndVtJGo2m0ilUigWiwBerXkaB1rJZFKE7Kenp3X2oeiCjOwwKI+FhYW2pYxB6mOnrN1YWlpCpVIRZa3X65aHSpj11U626NY/OqEoCuLxuOk75r3U2yx8zjDM8LDtdOUNI5ubm6YPOKfTie3tbRGOJrLZrLh3cnISb7/99kDvwQYCAWxubtp6VSQcDiMSiYhZBG0oAV5tlLLaSX3lyhXxzq4xHZfLhcXFRYTDYSiKgq2tLTHQcDgcAGC6qaVTeej7WCymS6tarSKVStl6EE5OTmJqagp+vx+qqsLtdosdsWYC2vLgwQyn04lUKoVqtSrq7fP5EAwGdWWW6+/3+xGLxUS4NxwOY3l5WXxPG89kaLDWbVNQt/p0o1tZu+F2u3H79m0kk0k4HA54PB6EQiHLNV1jX+1mi279oxPUX2/evIm//OUvPdebBqHy63wMwwyX1yJir6oqjo6OhrbrkxmMcrmMUqmEDz744HUX5XtJuVzGL3/5S/zmN7/pa939TUHTNGQyGdsDPIZheue1CB4sLS3hD3/4Q9vrIMPA6lxa/ph/gNNXpoaxW/yHgKqquggLhcJ/8pOffK8dLr3na7bUwjDM8HgtTtftduNnP/sZUqnU0N8HNO5o5U/nD3D6Skmnw0qYV9BygrzMYBUK/z6xs7ODiYmJkZ0RzjA/VF5LeJlhGIZhfoiwni7DMAzDjAh2ugzDMAwzItjpMgzDMMyIYKfLMAzDMCPi3DldMx1RI2anRdHfzXRGB4H0Va1ej7JT3l558uRJT/qyw0DW3LU6oel10q0d7CJr+Q6zzWRNaTOGVX6Zw8NDVhNimBFz7pwuyer1+uoDncazsrJiepRev/h8PuTzeUtlpmGjaRquX78+krxkSPKu0Wi8ka/PDKsdjo+P8fTpU7z//vvIZDJDc1rhcNi25u4wUFUV29vbI8mLYZhXnDun2y90LOVHH30kjn5k7PNDObN3f38fU1NT+Pjjj8+l6hbDMGfLuXO6ZuFaChs7HA5cvXoV3333ne4eOo1HURTMzs5ifn4eu7u7bWmrqqo7zUkOQ8tnAcshVmNYUA7DOhwOfPHFF235GNOS86Ew5J07d8T3dEKSpmlYWFgQIudkAzkkKl9vRrlcxocffohUKiXs1Ww2LdOgv29ubmJzcxMXLlwQdZXtLv+dvkulUsIWVNZu99BHbk95tmnVRsZ2IJEEszazgkTmFxcXMTs7i/Hx8TaNaKOdjHWwKp8xvGws38OHD9vK06+tVFXF6uoq0uk0Ll68KO7r1O8YhhkO587pGqHD8UkqjtRWZI6Pj7G3t4dAIACn04lIJAJN03SOSVVVJJNJlEoltFotlEolJJNJaJomnB3p4NZqNWia1vbQajabuHnzJhRFEQLk5XIZ+Xxel08ikRDlrdVqyGQyurTS6TTeeustkQapACmKgkKhILSQFUVBvV7H5cuXsbi4KE6hikQiCIfDlo73j3/8I/785z+j1Wphe3sbjUbDMo1GoyFELuLxOA4PDzE5OYmrV68CeHVC2NbWFlZWVnSO4fPPP8ft27fRarUwOztr657NzU0EAgFhG1nxp1MbydTrddy4cQNbW1sir0KhYCnkQZRKJZycnGBubk4oAj169Eg4ymazifX1dQAQUpGxWEzIYfZavlgsJuq5s7Mj5APJsfdrq3A4jGw2i2g0isePH8Pn89nqdwzDDM65dro0M9nY2BDn4oZCIUSjUd11+/v7mJ+fx+zsLIBXqkOkQtRsNoXaC60J+nw+HB4eQlEUoRRD68i0rmxUrjk4OEClUsG1a9cAnCr4rK+vY2ZmRpePXF5Sd5LXmYPBoJC4I9k2o8YrUSqV4PV6EQqFxN9CoRC8Xq+onxmy0kyvaRwfH+Ply5einsCp9Nzy8jLu3bsn/jY/P4/Jycme7olGo6KdSH7x6OioaxvJmK37+/1+nXKSGbu7u0KiEgDm5uawt7eHg4MDUYenT59ifX1dhNnD4TByuRxcLpft8tH6ONlbVvgahq2M2O13DMMMzrl2umZC6KRxStADR9YVpQcUzWIajYYQ9zZCIuPT09Ndy2MmEE7C9QBEPgsLC7ow38LCgi6dXkTGK5UK0uk0XC6XSM/lcnXUaB0bG9PZrNc0arUavvzyS3E+MX02Nzd118lrwP3cI9OpjayQQ8Eej0cXcTBiJns3OTmpW4qo1WoirUHKZ7Y+7vF4hHzgoLayKlu3fscwzOD8q9ddgNcNiYin02msrq7qvpuZmcHx8fHIFHhqtRpOTk5QKBSGdvD80dERotHoQHJtvaZRqVQQDAaFnq8d+rmnX0jXNp/PIx6Po9Vqib9ZkcvlkM/nTR1zMBgc6Wxw2LY6i37HMIw553qmSzOBWq0m/kYzU2J3dxfRaFSswdGnVqthfHwc9+7dg8vlgtfrRaVSacuDZs5mYTsjlEaj0RB/owcelXd8fNw0n36Znp5uy/Os0/B6vTg5OdHZ/SzukenURkZoZ3qtVhNhW7kdjFA0hBy0/KF13lwuB4/HI/rOIOWbnp5uWy6o1WpiTXdQWxk5i37HMIw559rp0maXRCIhZiI7OzsiLEohQzMNUQoxa5qGRqOBxcVF3foWhSZVVUUgEMD9+/dNd4/KzM7Oik1PlEYqlUKxWNSVN5lMtqXV6eAEGeODn9Z+KU/g1c5Yu4c79JoG7QCXpRtp17bVxpx+7pGhtW2rNjIiOy3auETtYITWaq9cudL2HYWYHz16hL/+67/G1NSUbl2Vdk0fHx/bLt/S0pJug1i9Xtf1pUFtBegHgMPodwzD2ONcO13gdCNLJBIRs17azAK82ihlpSV75coV8c6uMR2Xy4XFxUWhr7q1tQW/368ThzceEuF0OpFKpVCtVkUaPp9Pt4EnHA4jFovp0qpWq7ZDu5OTk5iamoLf7xfhR9rBTen5/X5sbW3ZDiX2mgbVE4BYB/Z4PGLHsxn93GOkUxvJKIqis7HH48EvfvELRKNR01fF7t27h6mpKbHpy1juSCSCvb09fPvtt7r2dTgcWFlZwaeffgqfz2e7fGTvTCYjyhcKhcSa7jBsRX2eXi0btN8xDGMP1tNlGIZhmBFx7me6DMMwDPOmwE6XYRiGYUYEO12GYRiGGRHsdBmGYRhmRLDTZRiGYZgRwU6XYRiGYUYEO12GYRiGGRHsdBmGYRhmRLQ5XTpOrpPQ+aih4/JI49YoUt+Nw8NDy6PsjOLhRozi5wSdzjTsY/LMjo/spby90mw2cXh4OJS0rBhmma3ag+infwyTUdiT6GaLXkkkEqyfyzBnzPdipruzs4OJiQkoimKqhdoJVVWxvb1t+X04HMb29nbPR93t7u7i/fff1+mpDoONjY224yPPChJd/+abb0aS33ln1Pb0+XzI5/NCn3dQrl27hgcPHgzNiTMM084b73Tr9ToePHhgetj864KEEj7++GOdnirDfJ9xu924dOmSTrCBYZjh0rfTJZUZWfRaDk3JAuEXLlzA4eEhrl69igsXLuhG0qqq6tIwhlZzuRzefvttcdi8MXxI4dhEIiHSoFCmqqpYXV1FOp3GxYsXTUfwxtCnsV4PHz5su4eEEmZnZ7G4uCjC3jJUTkpHDtfLtiH7UNmM4WXZPktLS/jTn/6ky8eYlpwPhR+/+uorXZ00TROzMtIRlm0g29LYXnboVmajjeX6moVMzf728OFD22WUhRqM/dSMTuVLJBK6/Mj+/+k//Sd89NFHPduzU/8FOvcjM7tY5UXpfPXVV7r0zBSO/vCHP/Bsl2HOiL6crpUUGkmDyQ90ACgWi/gP/+E/4OnTp7rrE4lEm3D85uameOiQjuni4mLH8O/m5iYCgYCQtCNZtHA4jGw2i2g0isePH3cNw1G9YrGYSGtnZ0fomAKvtFUp1E2yd6TRSumQ+hDpriqKgps3b+L58+dYX18HAKHhG4vFcOPGjTbHrWkakskkSqUSWq0WNjY28POf/1yXz+XLl7G4uCjyIaUZSuvZs2f4p3/6Jzx+/BitVgvZbBaJRAKNRgOpVArRaBTZbFaE4K9evQoAIr2trS2srKzYfgh3K7OmaUKhiGysaVrHdWwjz549w8HBQVf7AacDgEQigVqtJvLLZDKWjlfTNKysrODu3btotVpoNBqoVquifBTdIFm9nZ0dVCoV/OpXv8J/+S//pS97WvXfZrOJmzdvIhKJ6PqRLLFIkPOvVqs6uxjz+u1vfwtVVdFqtVAoFNrk/FwuF95++23s7+/bbg+GYezTl9OldVV6EDQaDUSjURSLRdRqNRwfH2Nvbw8zMzPi4bu1tYV//ud/FmmUy2Xcv38fAFAoFMQDJxgMIp1Oi4dqpVKB1+vtWJ5oNIrZ2VlRNkVRbInKG8nlcvB6vQiFQiIt4/qqUVuV8stkMmJ2Qg742rVr4r6NjQ1sb2/j22+/xdOnT7G+vi4GEuFwGLlcDm63W1zfbDaRyWQQi8XEYEFRFMTjcXFNqVTSlRcAQqEQvF6vmI0D0OkFz83NWQqtHx8f4+XLl7pyK4qC5eVlWyFHO2Xe3d1FPB4Xa/JkY7NogRVjY2M6+5nVmcrz6NEjbGxsCNtSfrKurczu7q6u/E6nE+vr6ygUCiiXy+L/9/b2cOvWLayururSl7FrT6v+S/1fxmrNn/ql0S7z8/M6BxqJRERZ/X4/xsfHdX3B6XRiYmKir98PwzDdGWhNl0bXLpdLzGoBoFaroVgsYnl5WTy8ZmdnEY1G264xPoAjkQgA9LROOjExMRTNz6Ojo7a0PB6P0DEFgP39/TZt1UAggL29PRwfHwOAGCi4XK62PGq1mtA/7YTVgGN6elr8u1KpIJ1OC01V0miV22JsbKxrXnLZvvzyS6H3Sp/NzU1b93crc7PZRLVa1dUBOH34v/POO6YDATN+/OMf6+pk5SioPAsLC7r6LCwsmKZL5VtdXdVd7/f7ddEOn8+HWCyGzc1NXf81YteeVv2Xfg9Unk5vFJj1K6fTicXFRZ1dug1ggdP2qlarLF7PMGdA3+HlpaUlXL58GZ988omY6Z536vU6MplMm6NbWFhAsVgceUju6OgI0WhUhBPlj10xc5lKpYJgMChCsfLnLHdU12o1PH/+/EzSPTk5EZEU+WOMLACvnHQ2m227/vDwULc8QY6sk3Mahj3D4bAuMuHxeHp6nY9nrAzzZtGX083lcsjn82Jd0xgG83g8mJmZwf3798V60cHBgW4GRtdsbm6KTVHk1IDT2eOoMRvh12o1McsplUo4OTkRIXP5E4/HRcjS6/WiUqmg0Wi05eHxeCzDuzIul0ukIyM/RKenpy3z6Qev14uTkxPbM04j3cpsNSPtNvuX2wAAnj9/riuj1Qza4/FgfHy8rTzdyt/NUWmahs3NTfz+978X669mDGpPGVrSobTkPQSAeb+ysks3zCI+DMMMB0unm8/n28JitJOTQlSbm5viYZnP58W9k5OTmJ+fR7FYhN/vh8PhwNraGt5//31xjc/nw/LyMgCI8B+lQ2tctL5l96FpRicHaGRpaUn3EK3X67oNPru7u7qQuUwgEEA+n0epVILf7wcA3RqjpmlYWlrCX/3VX2Fqakq3pme2C9XpdCISieg2utDDXi4vAN3GGtp5a+dwCKMTnJ2d1W0SIhssLS3ZOjTBTpkDgUDbQCuRSIgBHPU5sg+tE8s8e/ZMV0bazET2ICg8a9wslEgkTA/roPLL5QNON2PR7JLKm81m8cEHH2BjY0OkP2x7ml1Lzpb6GDE5OYmpqak2u+zt7WFubq5rXkS/jpphGHv0NdM1bo6Jx+MoFAoATh2T0+kUO2MBYGZmBv/tv/03TE1N6dLZ2NhANpvV/S0ej+sOqwgEAnj06FHf60v0cPJ4PF0dkdvthqqqyGQyYhAQCoUwNjaGp0+f4v79+5YzcFqz3t3dbUuHBiuqqmJiYgKpVArValV8t7Kygk8//bTNmSuKgq2tLTFwSSQS+PWvf91WXvmVGNoZbPfwEHKCS0tLYkczABE+93g8Ykc08GrwYBXe7FZmRVFQKpWwpCfHvAAAIABJREFUtrYm0lcURYRb3W43bt++jfv378PhcODixYv46U9/qltXHxsbw+zsrCgj7UY228wUDocRi8VEeRwOB6rVKlKplOlMTlEUFAoF3Towpe9yuXDz5k3d5jXaGEW7p3u1ZyfIFslkUpRlbW0Nt2/fbqur0+nE9vY2JiYmRF7JZBJ3797t6fAM2pDVi6NmGMY+jlar1Rp2ouVyGSsrKygWiygUClAURfwNQE8Pgnq9jp/97Gf45S9/ObSTd5jB+Md//EeEQiFTJ8d8v1FVFUdHRyM7FY1hfmicyYlUFF4GXoWO/X4/isUi5ufndTt/u3GWp+QYQ+f86fwBTgdBJycnpjuzme83b+Lpbwxz3jgTp+t0OvHJJ58gGAzq/h6NRi3Dep0IhUKoVqtDP8TeuBmKP50/wOmmpnfffZc32ZxDPvvsM1y6dIkjSgxzhpxJeJlhGIZhmHbeeMEDhmEYhjkvsNNlGIZhmBHBTpdhGIZhRgQ7XYZhGIYZEefO6Rr1ds0watbKfzfTGB0Es9Omei1vrzx58sT22bzDQtZ97UWmb1R0awe7yPrFw2wzo66zkWGVX+bw8JBFDRhmxJw7p0tn1No9kYmo1+tCS9VK9q0ffD4f8vn8yF7D0DQN169fH0leMiSL2Gg03siDFYbVDnRi0/vvv6+TcxyUcDisO4ntrFFVVWj+MgwzOs6d0+0XOtP2o48+EqIGjH1+KIfkk7Tjxx9/rJNzZBiGscO5c7pm4VoKGzscDly9ehXfffed7h46VF9RFHFIvZmer6qquhOa5DC0fP6xHGI1hgXlMKzD4cAXX3zRlo8xLTkfCkPeuXNHfE9nIWuahoWFBSFWQTaQQ6Ly9WaUy2V8+OGHSKVSwl7NZtMyDfr75uYmNjc3ceHCBVFX2e7y3+m7VColbEFl7XYPfeT2lGebVm1kbAcShjBrMytIBWtxcRGzs7MYHx9vk3M02slYB6vyGcPLxvI9fPiwrTz92kpVVayuriKdTuPixYs6cQqrfscwzHA4d07XCAkCkKbp4uIiksmk7prj42Ps7e0hEAgIpRlN03SOSVVVJJNJIetXKpWQTCahaZpwdqTbWqvVoGla20Or2Wzi5s2bUBQFrVYLjUYD5XJZp9CkqioSiYQob61WEwfuE+l0Gm+99ZZIw+v14rPPPhOH9ZOGq6IoqNfruHz5MhYXF8XJUnTgvpXj/eMf/4g///nPaLVa2N7eRqPRsEyj0Whge3sb8Xgc8Xgch4eHmJycxNWrVwG8OvVra2sLKysrOsfw+eef4/bt22i1WpidnbV1z+bmJgKBgLCNrArVqY1k6vU6bty4ga2tLZFXoVBoUxcyQtKOc3NzQsFIFuNoNptYX18HAKFxHIvFhBhCr+WLxWKinjs7O0LekBx7v7YKh8PIZrOIRqN4/PgxfD6frX7HMMzgnGunSzOTjY0NcTh/KBQS6kfE/v4+5ufnMTs7CwBt0nzNZhOPHj1CLBYTa4I+nw+Hh4dQFAW7u7uIx+NiHZnWlY1KMgcHB6hUKrh27RqA0+My19fXMTMzo8tHLq/b7cbGxoZunTkYDAoZO6fTicXFRUsx9VKppFPFIRt4vV6d9KARWU2p1zSOj4/x8uVLUU/glRqPfIa2fA633XtI9pFsoygKjo6OuraRjNm6v9/vbzu21IhR2nFubg57e3s4ODgQdXj69CnW19dFmD0cDiOXy8HlctkuH62Pk72pD/RqXytbGbHb7xiGGZxz7XRp1C6Lo5PmKUEPnMXFRfGgpAcUzWIajQYqlYrQEZbpRX+U0pDFAkhoHYDIR5aVczgcWFhY0KVjTKNbnul0Wsi9ORwOuFwupNNpy3vGxsZ0Nus1jVqthi+//LJNj1nW1QWgWwPu5x6ZTm1khRwKNmpCG6HwvTwYIWEPWoqo1WoirUHKZ7Y+7vF4hLzhoLayKlu3fscwzOD8q9ddgNfNwcEB0uk00uk0VldXdd/NzMzg+PjY9CF6FtRqNZycnAg5xGFwdHTUt9BEv2lUKhUEg0FLjdth3dMv9Xod4XAY+Xwe8XgcrVZL/M2KXC6HfD5v6piDweBIZ4PDttVZ9DuGYcw51zNdmgnUajXxN5qZEru7u4hGo2INjj61Wg3j4+O4d+8eXC4XvF4vKpVKWx40czYL2xmhNBqNhvgbPfCovOPj46b59Mv09HRbnmedhtfrxcnJic7uZ3GPTKc2MkI702u1mgjbyu1ghKIh5KDlD63z5nI5eDwe0XcGKd/09HTbckGtVhNruoPayshZ9DuGYcw5106XNrskEgkxE9nZ2RFhUQoZRiKRthkchZg1TUOj0cDi4qJufYtCk6qqIhAI4P79+6a7R2VmZ2fFpidKI5VKoVgs6sqbTCbb0up0cIKM8cFPa7+UJ/BqZ6zdwx16TYN2gKdSKVFm2rVttTGnn3tkaG3bqo2MyE6LNi5ROxihtVoznVkKMT969Ah//dd/jampKd26Ku2aPj4+tl2+paUl3Qaxer2u60uD2grQDwCH0e8YhrHHuXa6wOlGlkgkIma9tJkFeLVRijZOGbly5Yp4Z9eYjsvlwuLiIsLhMBRFwdbWFvx+v07w3XhIhNPpRCqVQrVaFWn4fD7dBp5wOIxYLKZLq1qt2g7tTk5OYmpqCn6/X4QfaQc3pef3+7G1tWU7lNhrGlRPAGId2OPxiB3PZvRzj5FObSSjKIrOxh6PB7/4xS8QjUZNXxW7d+8epqamxKYvY7kjkQj29vbw7bff6trX4XBgZWUFn376KXw+n+3ykb0zmYwoXygUEmu6w7AV9Xl6tWzQfscwjD1YT5dhGIZhRsS5n+kyDMMwzJsCO12GYRiGGRHsdBmGYRhmRLDTZRiGYZgRwU6XYRiGYUYEO12GYRiGGRHsdBmGYRhmRLQ5XaPeq3zCjVErtJv+6PcNkjcDzE+U6sSTJ086atTKWq5GzDSA6b4LFy501L/tB6N2a6/l7YfDw8MzPdlomGW2ag+ZXvvHoPmftf3kvs8wzNnRdaYr64WSGslZkkgkbB9POEzK5TIePHgg5NI2NjbaTpSyQtM0XL9+3fJ7n8+HfD4vJN3ssr+/j7GxMXG277AIh8PY3t4e2UlDqqpie3t7JHmdR0Zhv1AohGq1+lp+ewzzQ8LS6c7MzOD999/XHXRfKpU6yp8NAs2ijfJko+LevXu4dOnSmSvc2IUO2f/bv/1bLC8v6wY/DDNs6DjLTCbD/YxhzhBLpzs+Po6pqSnk83mhykLn0sbj8bbrKRRKoWdjSDSRSMDhcOB//I//0RaibjabWF9fF0IECwsLIvxpTNcY8u6UrlXZjGmUy2UUCgXMzc3p0qU0KBx7586dtvppmoaFhQXk83lxjq2ZbeTQpzGE/8UXX7Tdc3BwgL29PczNzSEQCGBvbw/Hx8e6a4zh/gsXLujCq6qqmtbZGF422ufhw4dt5SE7G/Ohunz11VemyxKqqmJ1dRXpdBoXL14U98nnOBvbww7dymy0jdwfzcK3Zn/75ptvdHl0mgUay9MtVGusv5UNzOxnFtqW/5ZIJJBKpUR7aJrWZg+z3ygJ3h8cHHQsO8Mw/dMxvPzTn/4UwKl+J0niBYNBvPvuu7rrNE2D3+/XqbTk83m89957bWts77//vk78fHNzE48fPzbN//nz56bqL0Y1FKt0NU2zVJCR09jf37c80J5Ip9N466230Gq10Gg0hFqQoigoFAoIBoOo1WpdRQSazSZu3rwJRVFEWuVyuS2CsLu7i/n5eUxOTgpVmf39fV066+vrACBkCWOxGG7cuIF6vQ5VVZFMJlEqlYQEXTKZbHMcZJ9YLCbUiXZ2doSMHD2sAQg5u62tLaysrOja4Le//S1UVUWr1UKhUBD2DYfDyGaziEajePz4MXw+n1g/rNVqIs9MJmPb8XYrc71ex+XLlzExMSHKrCgKwuFwT2vjOzs7+Prrr0Wd1tbWTNeMNU3DysoK7t69K9q0Wq1aOt5yuYx4PC7aptVqIZvNmvZrM/vZ4fPPP8ft27dF3W/duqWzByksycpRJFNpJvrAMMxw6Oh0PR4PZmZm8OjRI5TLZezt7cHr9cLlcolrms0mMpkMAOj0RuPxOIrFok7mDIDQrm00GohGowCA//2//zdSqZT4/0KhgO3tbUxMTCCXy4k06Z5isdimJWqWbqVSgdvt7prG0dERJiYmOq5xBoNBIXFHMnJGzVM7HBwcoFKpiLVjp9OJ9fV1zMzMiGuMkoNmsnUkN7e+vi7KHQ6Hkcvl4HK5hJoSPaR9Ph8ODw/bBgW5XA5erxehUAjAqcKNvJZ9fHyMly9fivICpyo9y8vLuraNRCIiNO/3+zE+Pm6q90ph842NDXE95SnXrxPdykyRGbnM9G/6zg5yGc3qTOzu7upsTW1aKBRMnbTZGv/c3JxQERoGNGCT6yLbiKQrjZhp+TIMMzw6Ot1/+2//Lebn51GpVPA//+f/RLFYxOLios7p0uaqYDCoe8hduXIFMzMzYrZJLC4u6hyJHWi25XK5dLNZmW7p2kmjE8bBRr9UKpW2tEhEnCDHIEsOzs3NCZlB4FTUnCTdjFCbeL3eruUxG3B4PB7hAGq1Gr788kshR0cf49q7nbzksi0sLOjSW1hYsHW/nTKb2ZicjN2NgO+8806bbc0cEkWAVldXdfXx+/1i5m2FvMxg5/pesBpEyksOZvsnZJ1dhmGGT0enS+GmfD6Pv/mbvwFg/+FqRS/300Pp8uXL+OSTT3SzWLvp9pLGmwBFDmiNWH6IF4vFkYf+aEBFoWD5Y3d3t0ytVsPJyQkKhUJberlc7sw2spFzHDY0iMhms231OTw8NA0H0/ovaeBS+H+YM10jtCafyWREW5rtzWAY5mzp+spQIBAQ/w4Gg22C7y6XC16vF/l8Xrc+dO/ePRSLRSiKYutBSg5eJpfLIZ/PizT6eWVpGGkME7OZBDki4DScu7e3Z+qUstks7t+/j3K5DI/Ho1ubk6E2sVNPs9lbrVYTsy6v14uTkxPTfPqBZvWDtIGdMhtt3G32L7cBALx48aKtzmYzbLL10dGR7fLv7+9jfn4ejUZDiM7L5e+VbgMKWq4oFApiYGN1j1mUgGGY4dHV6dK6LmAeYqVXDYDTzUty6GpmZgZXrlzpuVC0e/lf/+t/rUvX4/H0/MoSPWQ7pREIBAZax+rkAI3Mzs6KTVjA6QMzlUqJjV70QKadpDK0u3p/fx+Tk5OYmprSrTHSLunj4+O2NWAKrxs3Ky0tLaFSqWBnZwfA6QNa3gBEm7hSqZSwD0UP7G58kp2g2+1GJBJp2zSUSCQ6HtjRS5lpYCgPAunffr9fOEr59RgaJMokEglhP03TcP/+/bb+TP2fNu4Rqqp2PNREHhSUy2Wsra1Z1tc4iJienhaDL+B0n4CdJRN5oHPr1i3Te+zsb2AYpn+6Ot3JyUnMz88DeLVuakRRFJRKJd1moGAwiK+//rqnAyHkWXWlUsHMzIwuBBaPx1EoFADAdphVUZSuafj9frx8+bLtlRy7kAP0+/1dHZHT6UQqlUK1WoXD4YDL5YLP50MwGMTLly+RyWQs7ezz+cQ7uwB06TgcDqysrODTTz+Fz+dDOBxGJBIRIWqXy4XFxUUxsyLcbjdUVUUmkxGDklAoJEKdVF7gdFZH10Qikba0rCAnSK9UhcNhxGIx+P1+UfZqtYpUKgWn09n1dKluZXa73fjd736ns42maVBVFW63G06nE5988gkqlYqo07vvvotgMKjLJxQK4b333oPD4cDa2hru3r1r2p9pB7u8Tk27sc2iPOFwGIqiiLZZWVnB1tYWxsfHdTvUO9lveXlZ2G93d7djqNjtduP27dtIJpOifACQzWZ1ey5oRiz/DhmGGS6OVqvVet2FeBNIJBKYnp627UiYs+Wrr76C3+/v+RQvpn80TUMmkxGDH4Zhhg8LHvw/rly5ggcPHgz1jGPCeAgCf6w/wGko/F/+5V9Md2YzZwNt4KPX1BiGORvY6f4/fD4fLl26pFsHHBbGDVH8sf4Ap5uexsfH35gjOX8I7OzsYGJiouvhLgzDDAaHlxmGYRhmRPBMl2EYhmFGBDtdhmEYhhkR7HQZhmEYZkSw02UYhmGYEcFOl2EYhmFGxLlzumZi5EbMRMDp71Zi4v3S7XQlO+XtlSdPnpzJ+8adkBVzugm4vw66tYNdZDH4YbaZqqodj8EcVvllDg8PWcKPYUbMuXO6pJ/b6/uGdATeysqKbV1XO5hpp54lmqbh+vXrI8lLhjRuG41GX+pDZ82w2oF0jN9//33d2c2DEg6Hsb29PbKDKVRVxfb29kjyYhjmFefO6fYL6dR+9NFHOt1axh4/lIPy9/f3MTU1hY8//hh7e3t9n9fNMMwPk3PndM3CtRQ2djgcuHr1Kr777jvdPXQEnqIoQlXHTFBBFgA3hqE1TdN9RyFWY1hQDsM6HA588cUXbfkY05LzoTDknTt3xPekZqNpGhYWFoQWL9lADonK15tRLpfx4YcfIpVKCXs1m03LNOjvm5ub2NzcxIULF0RdZbvLf6fvUqmUsAWVtds99JHbU55tWrWRsR1I09aszayo1+tCkGJ2dtZUoMBoJ2MdrMpnDC8by/fw4cO28vRrK1VVsbq6inQ6jYsXL4r7OvU7hmGGw7lzukZUVYWmaUK4e3FxEclkUncNadgGAgEh1Sarr1A6yWQSpVJJiI4nk0lomiacHWng1mo1oWoj02w2cfPmTSiKglarhUajgXK5rJMaVFUViURClLdWqwnFGiKdTuOtt94SaZBUIKndkOi8oiio1+v/f3vnE5pIlsfxb2AvuntLDRECwXjRW5qQQ4aKFw+bHObSBhKainutJuxOCD2eBj0oe7JB0oy7OrceFZpAZ7dhYPUSGKJ0DiEkC8uYOSQiCFm63N2mB3N0D/J7XVWWWv6J3W3/PuDB+vN7r94r6lfv9371vnj48CH8fr9YapEUgro53p9//hm//vorWq0W0uk0ms1mVxvNZhPpdBqxWAyxWAwXFxdYWFjA48ePAbxfAjOVSmF7e9vgGJ4/f46DgwO0Wi0sLy/bOicajSIQCIi20Uv89eojPY1GA3t7e0ilUqKsUqnUIc9nplKp4Pb2FisrK0Ki8OTkRDjKu7s77O/vA2gvZdlqtRAOh7G3t4dGozFw/cLhsLjOo6MjobdLjn3YtlIUBblcDqqq4vXr1/B6vbbuO4ZhRmeqnS6NTCKRiFjHNxgMQlVVw3FmDVuSUisUCgDaD7mTkxOEw2ExJ+j1enFxcQFZloW0Gs0j07yyWbHo/Pwc1WoVu7u7ANqyefv7+0ISkcrR13d2dhaRSMQwz7y+vo6NjQ1hw+/3d9UDrlQqcLvdCAaDYlswGITb7RbXZ4Ve3m1QG7VaDW/fvhXXCbTl7zY3Nw36v6urq1hYWBjoHFVVRT/Nzs5ClmVcX1/37SM9VvP+Pp+vQ9rPzPHxMTY3N4X9lZUVnJ6e4vz8XFzDzc0N9vf3RZhdURQUCgU4nU7b9aP5cWpvugcGbd9ubWXG7n3HMMzoTLXTpbd2vVqNw+HA/Py8+E8PHL2GLT2gaBTTbDZRrVbhdrs7yri7u0O9XofH4+lbH7LhdDrFNkmS4HK5AECUo9dlnZmZwdramsGO2Ua/MjOZjNCNnZlpa+v2Ej2fm5sztNmgNjRNw4sXL4ReLP2i0ajhOP0c8DDn6OnVR93Qh4IlSTJEHMxYac2S1jRNRWiaJmyNUj+r+XFJkoRe8Kht1a1u/e47hmFG5zcfugIfmvPzc2QyGWQyGezs7Bj2LS0toVarTUxiTtM03N7eolQqjU3t5fr6GqqqjqSROqiNarWK9fX1riLu4zpnWBqNBhRFQbFYRCwWQ6vVEtu6USgUUCwWLR3z+vr6REeD426r+7jvGIaxZqpHujQS0DRNbKORKXF8fAxVVcUcHP00TYPL5cLh4SGcTifcbjeq1WpHGTRytgrbmSEbzWZTbKMHHtXX5XJZljMsHo+no8z7tuF2u3F7e2to9/s4R0+vPjJDmemapomwrb4fzFA0hBy0/kfzvIVCAZIkiXtnlPp5PJ6O6QJN08Sc7qhtZeY+7juGYayZaqdLyS7xeFyMRI6OjkRYlEKGVsLdFGIul8toNpvw+/2G+S0KTebzeQQCAbx8+dIye1TP8vKySHoiG8lkEpeXl4b6JhKJDlu9Fk7QY37w09yvXieYMmPtLu4wqA3KAE8mk6LOlLXdLTFnmHP00Nx2tz4yo3dalLhE/WCG5mq3trY69lGI+eTkBF988QUWFxcN86qUNV2r1WzXb2Njw5Ag1mg0DPfSqG0FGF8Ax3HfMQxjj6l2ukA7kSUUColRLyWzAO8TpShxyszW1pb4Ztdsx+l0wu/3Q1EUyLKMVCoFn88n5sMAdCwS4XA4kEwmUa/XhQ2v12tI4FEUBeFw2GCrXq/bDu0uLCxgcXERPp9PhB8pg5vs+Xw+pFIp26HEQW3QdQIQ88CSJImMZyuGOcdMrz7SI8uyoY0lScKTJ0+gqqrlp2KHh4dYXFwUSV/meodCIZyenuLNmzeG/p2ZmcH29jaePXsGr9dru37U3tlsVtQvGAyKOd1xtBXd8/Rp2aj3HcMw9mARe4ZhGIaZEFM/0mUYhmGYjwV2ugzDMAwzIdjpMgzDMMyEYKfLMAzDMBOCnS7DMAzDTAh2ugzDMAwzIdjpMgzDMMyE6Ol09VqcH4u+Jq3iY9YPtQPJl1lp7vbjl19+6bq+rlkL1YxZy1W//cGDBz31bYdh2PqMwsXFxdhWLupXfzN3d3e4uLiw3Genr/Wrh5k1ZQfR2x3mGhqNBh49ejTWvmAY5uOlq9ONx+MdqiU7OzsfheMdhqurK/z444/Y3d21lHbrRblcxtdff911v6IoSKfTA6/cc3Z2hrm5ObF277gYtj7Dks/nkU6nx2ZvkPqThu2//vUvy/2D9jUAoUdsXovbSiN51GuYnZ3FH//4R8OSjgzDTC+WTpfWJF5aWhKC27lcDgAMot2fEoeHh/jqq6/uXcHGLrSI/h/+8Adsbm5+su36uWAlWj8uSPOWdHkZhpleeoaXLy8vcXZ2BqD95t5qtcTbO4VG9SE0CuXpw6V6zdKZmZmOsLB5vznUat6fzWY76tnPxtXVFUqlElZWVgz1pJAjhRf14XS6rnK5jLW1NRSLRbFOrRlzKJHahmz99NNPHeecn5/j9PQUKysrCAQCOD09Ra1WMxxD9bS6rl7tOmh9erUf1eHVq1eGutCIL5/PY2dnB5lMBl9++aWogzlMO0iERF9/CoW/evXKcA3lclmMckmW0SqcaxVeNvfzu3fvbNetW5uZ283cB/l8vmt70PrN2WyWX7wYZsqxdLqksAO0Q8r0kBsU/UORuLy8xPb2Nq6uriz3F4tFKIqCRqNhuV9VVcP/fjaAdhi324L1RDQaRSAQEKFEUnmRZRmlUkmEHPuFKUmxJhwOC1tHR0dClo04Pj7G6uoqFhYWhGoMveCQHRJToBCnLMv49ttv8Z///Af7+/sAICQJw+Ew9vb2OuaG+9Wn0Wjg4cOH8Pv9ohxaOF9v669//Svy+TxarRZKpZJQpFEUBblcDqqq4vXr1/B6vWLunEK0mqYhm80OPTXx73//G//4xz/w+vVrEXWJx+NoNptIJpNQVRW5XM5WOJeEG6hufr8fiUSibx2urq6QSCTg9/vhcDjw9OlTzM/PG8LPgFGJiSiXy8hms6LMSqWCH374wfDyKUkSbm5uOl68GIaZLrqOdL/55huoqir+r62tDZy8RALx+jmyXC4nRtC0X69nm8vlUCwWUSgUUKvVcHp6aghzl0olyzK62QDaIuzz8/M9H8iqqoowH7102NHINVMoFOB2uxEMBoUts9qQWVLQSpaONF93d3fFeZFIBOl0Gm/evMHNzQ329/fFNSmKgkKh0BE+71efSqVi2A8AwWAQbrfbMM8cCoWEbZ/PB5fLZannSmHzSCQijqcy9dc3KHr5xZWVla66tb1oNBrIZrOGugWDQcN9DkBENfQjU5/Ph3A4LFR8IpGIoR31L6pmzDq1Xq8XxWIRXq9XbLPSfmYYZvro6nQdDgfS6TQqlQqWlpYAtEepVqOpbtDDRv/ApjC1oihifyaTERJlOzs7ANqOUtM0XF5eYnNzUzyglpeXDQ/Jfjbs0s8p28XKwUuSJGTZgPcOVS8puLKyImQEgfZ1ud1uOJ3OjjI0TRNybqPWp1qtGtqOJOf0kQOgrb9qh2aziWq1irW1NYPTWltbs3W+FXNzc7autR/04qe35XA4MD8/bzjOKpGK7lkz+rCxOfGQID1icqxWI/5BRO4Zhvl06fudrtfrxcXFhXC+evFvAEIIG2g/1G5vb++vtlPA3d0dstlsx2jK5/Ph8vLSUs/1Prm+vjZECfo5mX7QPVAqlTrsWY3EP1VoXlgfNo7FYpbHUgY1RWFoyuZT/RKAYZjhsXS6lASjTwSRJAkul6vjWL0TPjs7w+XlpdhHoyN9WJFGBvF4XOy3euhHIhFIkoSlpSW8fPlShLUpnGwuo5uNSePxeFCv1w0JMZqmiTlUCplbOaVcLieulUY99EKjR5Ik2+HVfvXxeDxdyxkGuk8+xhGbVQj37u4O9Xp9IDs0PVAqlcSLhF07FOnJ5XKGTGiKENiNKDAM82li6XR9Ph/W19cNYUdJklAsFkXyDz1cLy8v4fP5DGFdgkLB+lEdHRMIBMR+c3iTErcWFhawurpqKMMcpuxng8oyO55BGMTJbWxsiCQsoP2A1i+qcHZ2htXVVTF/rIeyq8/OzkToWT+vWi6XsbGxgd/97ndYXFzE4eGh2NdtwYt+9aHQpz4BiLKd7SbP6V8Q6NMaSrQi4vH4QAte2IXCw3amEqhutEAKABwdHXWE0u2if7F4+vRpVzv5fL4j8/zk5EQkZQHWoW+GYaaPrtnLf/tbuVYLAAANc0lEQVTb3zoSTFRVRTKZhMPhwOzsLA4ODsR8LwD8/e9/x/r6uvjvcDhEdqmeUqkEWZaH2k9JU3bLANovEW/fvh06M3RhYQGLi4vw+Xx9Q4Kzs7PI5/PIZrPiZSUYDGJubg7/+9//kM1mDQ9bPV6vV3yz63Q6DXYoOpDP5zE/P49kMol6vS72bW9v49mzZ4bknH710e/Xf+Lj8/mQSqVsLyhBLwj0SZWiKAiHw+JFaWZmBvV6Xdw7414RKxAIIBqN2lrZS1EUhEIh8RJ4cnKCcDg8UHl07ycSCXF9AJDL5VAulzvqQFnoVKbT6cT8/LwhfG8nw55hmE+fmVar1frQlZgE8XgcHo9nqHlKZvy8evUKPp+v4yXhc4Q+ewuFQgOtnMUwzKfHZyN4sLW1hR9//HGsaxwT3dbq5V/nD2g7mX/+858TCaV+6Ou10x60EpXVlAPDMNPFZ+N0vV4vvvrqK8vFC0bFnBDFv+4/oJ005HK5JpLJ/KGvt9+v0Wjgu+++M3xzzTDM9PLZhJcZhmEY5kPz2Yx0GYZhGOZDw06XYRiGYSYEO12GYRiGmRDsdBmGYRhmQkyd07XSTzVD2rlW22dmxrsmbr+FIOzUd1B++eWXe/k0qhd67V+rtv3QjGtBDr2O7jj7zKy/a2bcC4oAwMXFBev3MsyEmTqnS4vLD7rIAK2nu729PZIEnRkrGbf7pFwu4+uvv55IWXpIQrDZbH6QNa/7Ma5+qNVquLm5we9///uxis4rimJLD3hc5PN5pNPpiZTFMMx7ps7pDgtJ6v3pT38ySOwx9rCjWTwN0HKN33zzDU5PT1l0nmGYgZg6p2sVrqWw8cxMWznp3bt3hnNIbk+WZSwvL2N1ddVSYk+vnWoOQ+vXLtaHWM1hQX0YdmZmBj/88ENHOWZb+nIoDPn999+L/bTmcLlcxtramhCYoDbQh0T1x1txdXWFR48eIZlMiva6u7vraoO2R6NRRKNRPHjwQFyrvt3122lfMpkUbUF17XcO/fT9qR9tdusjcz+QqINVn3Wj0WiItbOXl5fhcrlwdnZmOMbcTuZr6FY/c3jZXL+ffvqpoz7DtlU+n8fOzg4ymQy+/PJLcV6v+45hmPEwdU7XDC3mTyoufr8fiUTCcAzJ7QUCATgcDoRCoY6F6/P5PBKJBCqVClqtFiqVChKJBMrlsnB2JNenaRrK5XLHQ+vu7g7ffvstZFlGq9VCs9nE1dUVisWioZx4PC7qq2kastmswVYmk8Fvf/tbYcPtduMvf/kLZFlGqVQSIuyyLKPRaODhw4fw+/1iFaRQKARFUbo63p9//hm//vorWq0W0uk0ms1mVxvNZhPpdBqxWAyxWAwXFxdYWFjA48ePAbxfESqVSmF7e9vgGJ4/f46DgwO0Wi0sLy/bOicajSIQCIi20Sso9eojPY1GA3t7e0ilUqKsUqmEaDTac562Uqng9vYWKysrQrFIL89HaygDEDKT4XAYe3t7aDQaA9cvHA6L6zw6OhJyjOTYh20rRVGQy+Wgqipev34Nr9dr675jGGZ0ptrp0sgkEomIJQeDwWCHIpFZbs8sq0dSbOFwWMwJer1eXFxcQJZlHB8fIxaLiXlkmlc2iyucn5+jWq1id3cXQFshaX9/Xyg1UTn6+s7OziISiRjmmdfX14Ukn8PhgN/v7ypdWKlU4Ha7EQwGxbZgMAi3222QDTQTCASGtlGr1fD27VtxnQAgyzI2NzcNcoQkEznIOaqqin6anZ2FLMu4vr7u20d6rOb9Sc6yF8fHx9jc3BT2V1ZWcHp6KtZOpvle/ZKOiqKgUCjA6XTarh/Nj1N70z0waPt2ayszdu87hmFGZ6qdrpVGKemvElbapvSAolFML4FxEi/3eDx960M2nE6n2Ea6xMB7IfO1tTVDmM+sIWy20a9Ms9aw0+nsqSE7NzdnaLNBbWiahhcvXggpO/pFo1HDcfo54GHO0TOMCLw+FEx60d2g8L3+ZYT0nmkqQtM0YWuU+lnNj0uSJOQYR22rbnXrd98xDDM6v/nQFfjQnJ+fI5PJIJPJYGdnx7BvaWkJtVptYsLimqbh9vbWoAU8KtfX1wYd5EnYqFarWF9fRz6fty1qMMw5w9JoNKAoCorFImKxmBAe6CX7WCgUUCwWLR3z+vr6REeD426r+7jvGIaxZqpHujQS0DRNbKORKXF8fAxVVcUcHP00TYPL5cLh4SGcTifcbjeq1WpHGTRytgrbmSEbzWZTbKMHHtXX5XJZljMsHo+no8z7tuF2u3F7e2to9/s4R0+vPjJDmemapomwrb4fzFA0hBy0/kfzvIVCAZIkiXtnlPp5PJ6O6QJN08Sc7qhtZeY+7juGYayZaqdLyS7xeFyMRI6OjkRYlEKGoVCoYwRHIeZyuYxmswm/32+Y36LQZD6fRyAQwMuXLy2zR/UsLy+LpCeykUwmcXl5aahvIpHosNVr4QQ95gc/zf3qJQ0pM9bu4g6D2qAM8GQyKepMWdvdEnOGOUcPzW136yMzeqdFiUvUD2ZornZra6tjH4WYT05O8MUXX2BxcdEwr0pZ07VazXb9NjY2DAlijUbDcC+N2laA8QVwHPcdwzD2mGqnC7QTWUKhkBj1UjIL8D5RihKnzGxtbYlvds12nE4n/H4/FEWBLMtIpVLw+XwGcXLzIhEOhwPJZBL1el3Y8Hq9hgQeRVEQDocNtur1uu3Q7sLCAhYXF+Hz+UT4kTK4yZ7P50MqlbIdShzUBl0nADEPLEmSyHi2YphzzPTqIz2yLBvaWJIkPHnyBKqqWn4qdnh4iMXFRZH0Za53KBTC6ekp3rx5Y+jfmZkZbG9v49mzZ/B6vbbrR+2dzWZF/YLBoJjTHUdb0T1Pn5aNet8xDGMP1tNlGIZhmAkx9SNdhmEYhvlYYKfLMAzDMBOCnS7DMAzDTAh2ugzDMAwzIdjpMgzDMMyEYKfLMAzDMBOCnS7DMAzDTAh2ugzDMAwzIabO6VqJ2JvRL9FoFu4eRNS8m81JQNc5aD0nhVk0flDMYu/DiqtPul8YhmF6MXUqQ6SVOghWii2kOpPP520trWde8vG+Ic3VZrP5US7T5/V6e0rl2cFK2ejq6grb29twu922lrGcdL8wDMP0YupGuuOCFoEnTd2PDSvN1c8Br9eLzc1NyzWSGYZhPnamzulahZfj8bgITT5+/Bjv3r0b2K5e8Jx+GxsbQjFGH8Y0H/vgwYOuYdZGo4FHjx7h+++/t7RptkG2o9EootGowbbV8fo2SCaTIiRN7WMOr+tDt3RN5vbTv4SYz6c2MIeXSZVo2PB9N/rZHbZfGIZh7oOpc7pmSB1H0zS0Wi34/X4kEom+511dXSGRSMDv98PhcODp06eYn5836O0CRrk7wnxsOBw2yLCZ+e9//4vz83M0m00UCgU4nU48fvwYAISNVCqF7e1t1Go1pNNpxGIxxGIxXFxcYGFhoevxeqfy/PlzHBwcoNVqQZZl5PN5xONx0TaapiGbzRocbzQaRSAQEPv1knPlchlra2solUpif7lc7phzJem8VCol6lcqlRCNRm3LCxLlclnUaVC7g/YLwzDMuJlqp9toNJDNZhGJRMR8bTAYhKqqhuOKxaKQW9NL14XDYTGfG4lEDPODpLdr5u7uDvV63bBNURSk0+meoWBy7kBbv/Xt27fY3d0V+2VZxubmpkGrlbB7/OrqqpCnI2F2fdvMzs4iEokYNF9VVcXy8rLhmq+vrwEAx8fHiMVioh1oPt1Kqq5QKBjay+fzGSQNrchkMkK6jn7k5GVZHsjusP3CMAwzTqba6dIITpIksc3hcGB+ft5w3Pr6ujhW/7NKoNJn1Uaj0Y79pK8ajUYHCmG63W5DvV+8eNHxImBV3iDH6+eAm80mqtUq1tbWOpxat3P0kBPzeDx9r01/DoV3JUnqm2ilqiqazWZHv5hfduzYHbZfGIZhxslUO91xQvOa2WxWOOhYLGZ5rCzLaLVaaDabWF1dhc/nG+ghX61Wu74IWGXjDno80HbUt7e3IjSs/xUKBUMm96jQPLvT6RThXU3T+o50x2131H5hGIYZlal2ujTyo/lXwDrM2I9Go4FyuYxSqSQckh07DocD6XRaPOTPzs5sled2u3F7e2uo9ziPB9pt43K5UK1WbZ+jhyIGFGruRaVSAdB29PQSQE5/FIa1O2y/MAzDjMpUO1367Ccej4s5yqOjI2QymaHs6R3U06dPLe1QqFOfQVur1XBzc4OVlRVb5SwvL2N1ddWQ5EOjOquFIQY9HnjfNolEoiPL2Zyh3I1AIICXL192nG+Vlax/KaAEqMvLy75l9MOu3XH0C8MwzKhMtdMF2skyoVBIjHpPTk4QDocHsjE7O4uDgwMkEgkx9wkAuVwO5XJZOHSgPYr685//bPiUxufzIRqNwuv12irP4XAgmUwCgEgkkiQJoVDIcp550OMJRVEQDofh8/lEXev1eseCFN2QZRmpVMpwPtC5IIUsy4ZyJEnCkydPoKrqSN/bDmJ3HP3CMAwzKjOtVqv1oSvBMAzDMJ8DUz/SZRiGYZiPBXa6DMMwDDMh2OkyDMMwzIRgp8swDMMwE4KdLsMwDMNMiP8DZA3kttK6hK0AAAAASUVORK5CYII=;" vertex="1" parent="1">
          <mxGeometry x="-350" y="410" width="477" height="256" as="geometry" />
        </mxCell>
        <mxCell id="jwCj8jfdCD62-75SdIWw-2" value="1:1" style="text;html=1;align=center;verticalAlign=middle;resizable=0;points=[];autosize=1;strokeColor=none;fillColor=none;" vertex="1" parent="1">
          <mxGeometry x="40" y="220" width="40" height="30" as="geometry" />
        </mxCell>
        <mxCell id="jwCj8jfdCD62-75SdIWw-4" value="0:1" style="text;html=1;align=center;verticalAlign=middle;resizable=0;points=[];autosize=1;strokeColor=none;fillColor=none;" vertex="1" parent="1">
          <mxGeometry x="-20" y="290" width="40" height="30" as="geometry" />
        </mxCell>
      </root>
    </mxGraphModel>
  </diagram>
</mxfile>
